<svg xmlns="http://www.w3.org/2000/svg" fill="#fff" viewBox="0 0 1772 955"><path d="M816 332a17 17 0 1 0 0-34 17 17 0 0 0 0 34Zm177-110a14 14 0 1 0 0-28 14 14 0 0 0 0 28ZM45 682a15 15 0 1 0-29 0 15 15 0 0 0 29 0Zm1083 273a24 24 0 1 0 0-48 24 24 0 0 0 0 48Zm612-580a13 13 0 1 0 0-26 13 13 0 0 0 0 26Zm-146 569a13 13 0 1 0 0-26 13 13 0 0 0 0 26ZM1332 63a11 11 0 1 0 0-22 11 11 0 0 0 0 22Zm-25 43a18 18 0 1 0 0-36 18 18 0 0 0 0 36ZM943 328a8 8 0 1 0-11-11 8 8 0 0 0 11 11Zm789-31a8 8 0 1 0 0-15 8 8 0 0 0 0 15Zm32 34a8 8 0 1 0 0-16 8 8 0 0 0 0 16Zm-122 449a8 8 0 1 0 0-16 8 8 0 0 0 0 16Zm-483 124a8 8 0 1 0 0-16 8 8 0 0 0 0 16Zm11-888a8 8 0 1 0 0-15 8 8 0 0 0 0 15ZM943 226a8 8 0 1 0-11-11 8 8 0 0 0 11 11ZM826 430a8 8 0 1 0 0-15 8 8 0 0 0 0 15ZM8 618a8 8 0 1 0 0-16 8 8 0 0 0 0 16Zm30-173a8 8 0 1 0 0-16 8 8 0 0 0 0 16Zm722 288a8 8 0 1 0 0-15 8 8 0 0 0 0 15ZM77 330a8 8 0 1 0 0-16 8 8 0 0 0 0 16Z"/></svg>