<svg width="1772" height="955" viewBox="0 0 1772 955" fill="#fff" xmlns="http://www.w3.org/2000/svg">
<path d="M816.4 331.7C825.678 331.7 833.2 324.178 833.2 314.9C833.2 305.621 825.678 298.1 816.4 298.1C807.121 298.1 799.6 305.621 799.6 314.9C799.6 324.178 807.121 331.7 816.4 331.7Z"/>
<path d="M992.8 222.1C1000.48 222.1 1006.7 215.876 1006.7 208.2C1006.7 200.523 1000.48 194.3 992.8 194.3C985.124 194.3 978.9 200.523 978.9 208.2C978.9 215.876 985.124 222.1 992.8 222.1Z"/>
<path d="M45.2138 682.064C45.3651 673.892 38.8629 667.145 30.6907 666.993C22.5185 666.842 15.7709 673.344 15.6196 681.516C15.4684 689.689 21.9706 696.436 30.1428 696.587C38.315 696.739 45.0625 690.236 45.2138 682.064Z"/>
<path d="M1128.3 955C1141.5 955 1152.2 944.3 1152.2 931.1C1152.2 917.901 1141.5 907.2 1128.3 907.2C1115.1 907.2 1104.4 917.901 1104.4 931.1C1104.4 944.3 1115.1 955 1128.3 955Z"/>
<path d="M1740.1 375C1747.39 375 1753.3 369.09 1753.3 361.8C1753.3 354.51 1747.39 348.6 1740.1 348.6C1732.81 348.6 1726.9 354.51 1726.9 361.8C1726.9 369.09 1732.81 375 1740.1 375Z"/>
<path d="M1593.9 944.301C1601.19 944.301 1607.1 938.391 1607.1 931.101C1607.1 923.81 1601.19 917.9 1593.9 917.9C1586.61 917.9 1580.7 923.81 1580.7 931.101C1580.7 938.391 1586.61 944.301 1593.9 944.301Z"/>
<path d="M1331.8 63.2998C1337.87 63.2998 1342.8 58.3749 1342.8 52.2998C1342.8 46.2247 1337.87 41.2998 1331.8 41.2998C1325.72 41.2998 1320.8 46.2247 1320.8 52.2998C1320.8 58.3749 1325.72 63.2998 1331.8 63.2998Z"/>
<path d="M1306.7 106.1C1316.64 106.1 1324.7 98.0407 1324.7 88.0996C1324.7 78.1585 1316.64 70.0996 1306.7 70.0996C1296.76 70.0996 1288.7 78.1585 1288.7 88.0996C1288.7 98.0407 1296.76 106.1 1306.7 106.1Z"/>
<path d="M942.877 328.185C945.923 325.139 945.923 320.201 942.877 317.155C939.831 314.108 934.893 314.108 931.846 317.155C928.8 320.201 928.8 325.139 931.846 328.185C934.892 331.231 939.831 331.231 942.877 328.185Z"/>
<path d="M1732.3 297.4C1736.61 297.4 1740.1 293.908 1740.1 289.6C1740.1 285.292 1736.61 281.8 1732.3 281.8C1727.99 281.8 1724.5 285.292 1724.5 289.6C1724.5 293.908 1727.99 297.4 1732.3 297.4Z"/>
<path d="M1763.9 330.5C1768.21 330.5 1771.7 327.008 1771.7 322.7C1771.7 318.392 1768.21 314.9 1763.9 314.9C1759.59 314.9 1756.1 318.392 1756.1 322.7C1756.1 327.008 1759.59 330.5 1763.9 330.5Z"/>
<path d="M1642.3 779.5C1646.61 779.5 1650.1 776.008 1650.1 771.7C1650.1 767.393 1646.61 763.9 1642.3 763.9C1637.99 763.9 1634.5 767.393 1634.5 771.7C1634.5 776.008 1637.99 779.5 1642.3 779.5Z"/>
<path d="M1158.5 903.6C1162.81 903.6 1166.3 900.108 1166.3 895.8C1166.3 891.492 1162.81 888 1158.5 888C1154.19 888 1150.7 891.492 1150.7 895.8C1150.7 900.108 1154.19 903.6 1158.5 903.6Z"/>
<path d="M1170.1 16.3998C1174.41 16.3998 1177.9 12.9076 1177.9 8.59973C1177.9 4.29191 1174.41 0.799805 1170.1 0.799805C1165.79 0.799805 1162.3 4.29191 1162.3 8.59973C1162.3 12.9076 1165.79 16.3998 1170.1 16.3998Z"/>
<path d="M942.878 225.884C945.924 222.838 945.924 217.9 942.878 214.854C939.832 211.808 934.894 211.808 931.847 214.854C928.801 217.9 928.801 222.838 931.847 225.885C934.894 228.931 939.832 228.931 942.878 225.884Z"/>
<path d="M826.1 430.2C830.408 430.2 833.9 426.707 833.9 422.4C833.9 418.092 830.408 414.6 826.1 414.6C821.792 414.6 818.3 418.092 818.3 422.4C818.3 426.707 821.792 430.2 826.1 430.2Z"/>
<path d="M7.89961 617.699C12.2074 617.699 15.6996 614.207 15.6996 609.899C15.6996 605.592 12.2074 602.1 7.89961 602.1C3.59179 602.1 0.0996094 605.592 0.0996094 609.899C0.0996094 614.207 3.59179 617.699 7.89961 617.699Z"/>
<path d="M38.3 444.8C42.6078 444.8 46.1 441.308 46.1 437C46.1 432.692 42.6078 429.2 38.3 429.2C33.9922 429.2 30.5 432.692 30.5 437C30.5 441.308 33.9922 444.8 38.3 444.8Z"/>
<path d="M759.6 733.3C763.908 733.3 767.4 729.808 767.4 725.5C767.4 721.192 763.908 717.7 759.6 717.7C755.292 717.7 751.8 721.192 751.8 725.5C751.8 729.808 755.292 733.3 759.6 733.3Z"/>
<path d="M77.2004 330C81.5082 330 85.0004 326.508 85.0004 322.2C85.0004 317.892 81.5082 314.4 77.2004 314.4C72.8926 314.4 69.4004 317.892 69.4004 322.2C69.4004 326.508 72.8926 330 77.2004 330Z"/>
</svg>
