<?xml version="1.0" encoding="utf-8"?>
<svg xmlns="http://www.w3.org/2000/svg" fill="#fff" viewBox="596.149 200.884 356.724 65.158">
<ellipse cx="929.654" cy="230.553" rx="4.437" ry="4.437"/>
<ellipse cx="743.249" cy="234.054" rx="3.979" ry="3.979"/>
<ellipse cx="897.749" cy="230.011" rx="7.465" ry="7.465"/>
<ellipse cx="916.011" cy="209.874" rx="2.575" ry="2.575"/>
<ellipse cx="622.355" cy="226.952" rx="7.332" ry="7.332"/>
<ellipse cx="775.893" cy="258.603" rx="7.439" ry="7.439"/>
<ellipse cx="601.177" cy="205.912" rx="5.028" ry="5.028"/>
<ellipse cx="809.301" cy="252.179" rx="3.818" ry="3.818"/>
<ellipse cx="626.906" cy="254.971" rx="3.284" ry="3.284"/>
<ellipse cx="714.184" cy="217.617" rx="7.332" ry="7.332"/>
<ellipse cx="795.839" cy="228.761" rx="9.553" ry="9.553"/>
<ellipse cx="946.933" cy="218.765" rx="4.437" ry="4.437"/>
<ellipse cx="764.39" cy="219.244" rx="3.284" ry="3.284"/>
<ellipse cx="774.771" cy="241.912" rx="2.575" ry="2.575"/>
<ellipse cx="639.822" cy="215.007" rx="2.575" ry="2.575"/>
<ellipse cx="950.298" cy="242.243" rx="2.575" ry="2.575"/>
</svg>
