<svg xmlns="http://www.w3.org/2000/svg" viewBox="-559 -608 1004 1720"><g transform="translate(-1040 -748)"><linearGradient id="a" x1="480.3" x2="1173.5" y1="1511.3" y2="1511.3" gradientUnits="userSpaceOnUse"><stop offset="0" stop-color="#300042" stop-opacity="0"/><stop offset="1" stop-color="#2f0042"/></linearGradient><path fill="url(#a)" d="M1163 1699h-2v-1l-24-8-40-12-17-4-12-3v-1l-78-80-66-67-17-17-8-8-8-7 6-1h3l1-1h3c1 0 2-1 1-2l-2-1-7-2h-1c4-2 6-4 6-7l-1-3h2l5-2a253 253 0 0 0 43-17l7-3 6-4c2-2 3-3 2-5l-4-3-6-2 1 1-5-2-4-1-12-4-27-8-31-9-24-7a463 463 0 0 0-59-13 313 313 0 0 0-56 0l1 1h-1l-7-1h-3l-4-3-3-2h7l6-1a397 397 0 0 0 45-9l13-6c3-3 4-6 4-8l-6-8-8-8-3-6c-2-4-8-9-16-13h-1l2-1 9-2c1-2-1-4-5-5l-2-2a35 35 0 0 0-9-2h-1l-7-2-8-3h-5l-5-1s-1 0 0 0l3 1-3-1 1 1h1-1c-6-3-14-5-23-6h-3a160 160 0 0 0-25-2l-4-1h-5l-4-1h-22l-26 2-6 1-6 1-5 1-4 1h-12l-19 2h-4l-24 5c-2 1-5 2-6 4l-1 1-1 1v2h-5l-9 2c-6 1-11 3-14 5l-4 2-1 3-1 1h-1l-2 2-8 2-5 1-1 1 2 1 9 2h8l-2 3 2 1c-1 1 1 1 2 1l6-2 2 2c2 1 2 3 2 4l-2 2v1h2v1c-1 0-1 0 0 0h2l8-4 11 4 2 1h-7c-1 0-2 0 0 1h1l1 1 7 1 13 5c0 2 2 5 5 7l3 2c5 2 11 4 19 5a78 78 0 0 0 20-1h1l6 2 7 1a313 313 0 0 0 65 6h12l1 2 2 1 1 2-3 2-3 1h-2v-1l-8 1a1239 1239 0 0 0-28 4c-10 3-19 6-26 10a156 156 0 0 0-34 40l-1 2-1 3v2l-2 1v1c0 1 1 2 3 2l2 2 6 2 11 2 11 3a1082 1082 0 0 0 64 10l8 1a369 369 0 0 0 7 2v1a57 57 0 0 0 18 5l-2 1-2 1v1l2 1 3 2h13l9-1 12 13 15 14 31 31 72 70a2295 2295 0 0 0 50 46v1h1l-4 2-6 4-7 5-8 6c-3 2-7 5-8 9v4l9 7 5 3 4 2 3 1 4 1a124 124 0 0 0 46-2c7-1 13-3 19-6a57 57 0 0 0 18-13v-3l-6-8c-5-5-13-10-22-15l-3-1-3-1-1-1h-1a403 403 0 0 0-68-75l-6-6-14-14a226 226 0 0 1-38-59l-2-3 11 7 12 8a880 880 0 0 1 57 42l21 20a657 657 0 0 0 84 77l2 1-1 1v4l4 8 9 9 5 4 5 3 3 1a383 383 0 0 0 131 21l2-1 1-2c-1-3-4-8-12-13zm-123-7zm-176-220c-6-6-14-11-21-16h-1l-11-11-4-4-5-4-2-3-1-1-3-3c-1-4-3-9-9-13l-7-4v-1l5 2 9 1 3 1 24 6a6667 6667 0 0 1 66 17l7 2-6 4-2 2a59 59 0 0 0-18 16l-3 5v2a890 890 0 0 0-21 2zm-126-76zm-45 1h-1 1zm12-27zm61-47zm-11-3h-1 1zm-19-4h-1 1zm-66 110a2220 2220 0 0 0 42 47l3 3 2 2 1 1h-24l-12-4a356 356 0 0 0-50-14l-3-1 6-7 9-8 16-15 5-4 2-2v-1h1l2 3zm56-30zm42-67h1-1zm2-1zm-37-13zm-217 40zm1-15zm1 8c0-1 0-1 0 0 0-1 0-1 0 0 0-1 0-1 0 0 0-1 0-1 0 0zm-8-8zm11-2zm2 15 1 1h-1v-1zm-19-19zm-6 6c0 1 0 1 0 0 0 1 0 1 0 0 0 1 0 1 0 0 0 1 0 1 0 0 0 1 0 1 0 0zm-7 3zm-7 2zm20 6v-1 1zm12 7 1-1-1 1z" opacity=".4"/></g><path fill="#9CDAE6" d="m-206 139 4 4c13 7 27 9 42 10l-6-5a85 85 0 0 1-20-28l-2-5-1-3-20 26 3 1z"/><path fill="#B1E8E8" d="M71 395a206 206 0 0 1-29 5 319 319 0 0 1-112-6l-22-7 1 9v1l15 3 19 4a381 381 0 0 0 98 8l16-3 13-3v-6l1-5z"/><path fill="#9CDAE6" d="M-230 181a47 47 0 0 0 30 11 53 53 0 0 1-24-32l-11 15 1 2 4 4z"/><path fill="#F09CB3" d="M-116 83a112 112 0 0 1 7 44l-2 9v5l1 12v55l3 11 4 15a448 448 0 0 0 27 75l9 19v-6l1-11h1l1 11v12c0 1-2 2-3 0a425 425 0 0 1-40-103l-2-10v125l-1 3v8c4 0 8 1 11 3 3 3 4 8 5 12l1 13 11 3 17 4a323 323 0 0 0 111 5l25-5 1-8 2-15c1-5 3-8 8-10l6-2h4l-1-6-2-9a562 562 0 0 1-1-118l2-16 1-4-4 10a267 267 0 0 1-27 47l-10 15c-1 1-2 0-1-1l10-17a421 421 0 0 0 36-82 132 132 0 0 0-2-59l-2-8h1v-1c-2-4-2-9-1-14a43 43 0 0 1 14-28l4-3a184 184 0 0 0-50-14l-10-1-11-2v6l-3 6c-2 4-5 8-8 10-7 6-16 10-25 11-9 2-19 1-28-1a41 41 0 0 1-30-32v-2l-5 1-14 2a281 281 0 0 0-51 15l-9 4 8 3c6 4 9 9 11 14zm40 292h-1v-1h1v1zm87-60 9-27 9-28 1 1a1061 1061 0 0 1-16 55c-1 3-3 6-2 10s6 2 8 0a211 211 0 0 0 30-20l9-8 1 1a102 102 0 0 1-22 19l-11 7-5 4-6 2c-3 1-7-2-7-5-1-4 1-8 2-11z"/><path fill="#D2C8B8" d="M-48 932a285 285 0 0 1-46 27c-8 3-16 6-25 6a39 39 0 0 1-20-6l4 6c8 3 17 4 25 4 15-2 29-8 42-15 14-7 26-16 36-27l2-9 1-1-8 7-11 8z"/><path fill="#46C8CA" d="M-96 409c3-2 2-7 1-11l-1-12-2-1 1-1v-1l-2-14c0-1 0-3-2-5l-4-2-7-1-7-1-15-3-8-1-6-1-1-1-1-1-14-18a341 341 0 0 0-69-67l-6-4-2-3-1-1-1-1c-1 0 0 0 0 0l2 1h1l4 2a74 74 0 0 1 8 5l2-3 3-4 6-8 12-15a4940 4940 0 0 1 68-83l12-13c4-5 7-10 12-14h1v-1a99 99 0 0 0-3-26l-5-15c-2-4-5-9-10-12l-9-2-4 1a161 161 0 0 0-44 38l3 4 2 6c7 14 17 25 29 34 2 1 2 4-1 3h-15c-9-1-18-3-26-6a47 47 0 0 1-14-9l-1-2-4 5-8 12 1 1c2 7 6 14 10 20 5 6 11 11 18 14 2 1 1 4-1 4l-12-1a49 49 0 0 1-30-17 704 704 0 0 0-31 51l-9 17-4 9-3 5-3 5c0 1-3 0-2-1v-2l-2 8c0 2 0 5 2 8 2 5 7 9 12 13a589 589 0 0 0 116 71l8 4c1 1 0 3-2 2h-1l2 6c5 11 13 19 23 24l13 5 5 2 3 1-4 1-7-1-12-5-6 3-2 1h-1v1l-2 2 2 4 2 1h32c4-1 9-1 11-4zm-127-555z"/><path fill="#FFFFA9" d="m-295-292 3-18a50 50 0 0 1-33 15c2 5 5 9 10 11 3 2 6 2 10 2l9-1 1-9z"/><path fill="#D2C8B8" d="m-38 876-1 3-1 3-5 6a27 27 0 0 1-38-3l-4 4-8 8-22 20-18 16-4 6-2 3v1l-1 2v4l1 7 1 1 5 2a47 47 0 0 0 20 3c9-1 17-4 25-8a288 288 0 0 0 61-40 59 59 0 0 0-9-38z"/><path fill="#FFFFA9" d="M193-253c6-1 11-4 14-9s3-10 3-15v-5l-1-1-2-6-4-8v5c0 9-2 19-8 26-4 5-10 9-15 11l3 2h10z"/><path fill="#F8E8B9" d="M-227-150c6-3 13-3 19-1a62 62 0 0 1 24 13h2l1 3a200 200 0 0 1 6 16l8-7-3-16-12-60c0-2 0-3 2-3l35-10a185 185 0 0 1 1-46l5-23a252 252 0 0 1-84-3c-4-1-9-3-13-6l-2 6-3 5-4 8h3l2 1h2l2-1 7-3c1 0 2 2 1 3l-5 4-6 3-9 5 14 7v4l-30 12 9 10 6-1c2 0 2 3 0 3-3 2-7 2-11 3l-6 2c9 11 16 25 19 40 1 2-1 3-3 3l-8-2 3 4a141 141 0 0 1 20 33v2l8-8z"/><path fill="#FFFFA9" d="M-271-272h2c4 5 5 11 6 18l-1 12 24-11-13-7c-2-1-2-3 0-3l12-7h-7l-2-3 5-11 2-5 1-2v-2c-3-10-4-21-1-32l-1 1-5 6c-5 7-7 15-9 23v14h-2l-2-7a43 43 0 0 1 11-34 38 38 0 0 1 8-6l1-1 4-8a58 58 0 0 1 35-28v-4l-1-7h-3l-8 1-21 5c-13 5-24 13-34 23a54 54 0 0 0-14 27c-5 20-3 42-13 61l6-4 2-2a43 43 0 0 0 13-20c2-6 2-12 2-18l-1-7v-2h-1v-1c0-2 2-2 3-1v1h1l1 3 2 8c2 7 1 15-2 22-2 6-6 13-11 18l-1 3v3l1 7 2 12a50 50 0 0 1-4 21h1a51 51 0 0 0 13-40l-1-16z"/><path fill="#B1E8E8" d="M84 416c-4 0-9-1-11-5l-2-2a145 145 0 0 1-34 6 278 278 0 0 1-99-8l-16-4-13-4v4c0 4-1 8-5 10-3 3-8 3-13 3l2 26 2 25 3 51 10 181 9 182v1l5 4c6 5 14 6 22 4a27 27 0 0 0 16-13l1-2v-3l1-5a1384 1384 0 0 0 2-177 545 545 0 0 1 8-128 907 907 0 0 1 14-71l6-25-7-1-13-3v-2l26 2 14 1 6-1 4 1h3v2l-6 1-7 1H-2a818 818 0 0 1 28 230 1291 1291 0 0 0 4 175v1l2 3 2 2 5 5c6 5 14 8 22 5l9-5 4-3 4-101 10-181 5-91 3-46 4-44-16-1zM-51 660l-7 5-8 1-9-3-6-5c-1-1 0-2 1-2l4 2 3 2a23 23 0 0 0 14 0l7-2c1 0 2 1 1 2zm121 13-6 3h-8c-4-1-10-3-12-7v-1h1l6 3 6 2 6-1h3l3-1c1 0 2 1 1 2z"/><path fill="#FFFFB1" d="m77-176 4 1c3 0 6-3 9-4a136 136 0 0 1 54-15h-22l-15 3-13 2a55 55 0 0 0-14 6l-3 3v4zm-89-20c-1-3-6-5-10-6l-11-5a364 364 0 0 0-78-19h-7a278 278 0 0 1 88 30c3 2 7 5 11 5 3 1 8-1 7-5z"/><path fill="#46C8CA" d="M167-191c1 0 1 0 0 0z"/><path fill="#D2C8B8" d="M121 961c-5 2-10 2-15 1-8 0-16-3-24-7a253 253 0 0 1-61-40l3 10a129 129 0 0 0 37 28l20 9c7 3 15 5 23 5s15-2 22-4l4-6-3 2-6 2z"/><path fill="#D2C8B8" d="M70 886a27 27 0 0 1-38-7l-2-5v2h-1l-3 5c-4 10-6 21-5 31l9 7a231 231 0 0 0 32 22l22 13c8 3 16 6 25 6a44 44 0 0 0 18-3l4-2 1-3a21 21 0 0 0 1-8v-1l-1-2v-1l-1-1a32 32 0 0 0-3-5l-1-1-3-4-18-17a3605 3605 0 0 1-32-29l-4 3z"/><path fill="#FFFFA9" d="M154-262h1l3 2a27 27 0 0 0 18 0c7-2 13-6 17-13s6-16 5-24c-1-9-5-18-9-26l-9-12-4-6-4-6v-1h-1l2 5c5 15 5 32 0 47a73 73 0 0 1-17 31l-3 3h1z"/><path fill="#46C8CA" d="M267 263c1 1-1 3-2 1l-4-5-9-13-9-15-23-36-26-41a1589 1589 0 0 0-27-42l-3-5-2-2-1-2h-1a135 135 0 0 0-20-21v-1h-1l-2-2-4-3-20-11-1 2-5 3c-7 7-11 17-12 26l1 13v6l8 8 6 7 14 16a1617 1617 0 0 1 83 104l8 12 2-1 3-1h1l2-1-2 1v2l-3 2-2 1 1 1h-1l-4 3a443 443 0 0 0-70 68l-12 16-1 1h-1l-1 1-6 1-9 2-17 2-7 1-5 2c-4 2-5 6-5 9l-2 15-1 4c2 1 2 3 0 3l-1 7v6l4 4 5 2a161 161 0 0 0 35-1l3-1c1-1 2-2 1-4l-1-1v-1l-4-2-5-2a49 49 0 0 1-19 5h-4l4-2a60 60 0 0 0 32-18c4-4 6-8 8-13l2-5h-2c-1 1-2-1-1-2l9-5 9-4a617 617 0 0 0 109-69c4-3 8-7 10-12l1-7-3-6z"/><path fill="#FFFFA9" d="M-171-286a298 298 0 0 0 40-5l7-1h6l2 2a335 335 0 0 1 64 8l50 13-1-17c-1-2 1-3 3-2l34 14a199 199 0 0 0-17-28c-12-17-27-30-43-43l-27-19-14-9-14-9c-1-1 0-3 1-2l17 9a334 334 0 0 1 67 50 149 149 0 0 1 29 44l2 7v1c5-6 14-12 21-7 4 1 6 4 9 6 4 1 7 0 10-1 6-3 11-8 13-13 3-6 4-12 3-17-1-6-3-12-6-17-1-1 0-2 1-1 8 8 9 19 9 19 1 12-5 20-8 23l1 1h2l13 6 10 6 1-3c2-4 5-7 9-8s8 1 11 3l4 5 1 5 2 4c1 2 3 1 5 0l9-8 6-9 9-21c4-16 2-32-3-46-6-16-16-30-29-41a142 142 0 0 0-39-24 83 83 0 0 1 26 56c1 9 0 17-3 25l-1-1 1-5a69 69 0 0 0-9-48c-8-14-20-27-35-35-13-8-28-13-44-15l-5-1h-4a208 208 0 0 0-41-1l-23 4-10 3-4 1h-1l24 10a139 139 0 0 1 60 63l-2-4-4-4-3-5-9-10-10-11a134 134 0 0 0-26-19 141 141 0 0 0-45-18 176 176 0 0 0-61-3l-7 1-7 1a107 107 0 0 0-36 15c-6 4-11 10-15 16-5 9-6 20-5 30a110 110 0 0 1 35-3 100 100 0 0 1 55 22l5 4 2 1v1h1v1c1 1-1 2-2 1l-1-1-4-3-6-3c-5-3-9-6-15-8a103 103 0 0 0-53-10l-2 1h-4l-17 4-16 10c-6 5-11 12-14 19s-4 14-4 22l1 11a123 123 0 0 0 68 11zm-2-38h7l7-1 13 1a181 181 0 0 1 80 31l5 3 5 5h-1l-12-7a443 443 0 0 0-33-16 186 186 0 0 0-59-13l-6-1h-6v-2z"/><path fill="#46C8CA" d="m186-235-2-14-3-1-4-3-1-1h-3c-4 1-8 0-12-1l-6-2-2-2-1-2-7 4c-2 1-4 1-6-1-2-1-3-3-3-5-1-3-1-7-4-10-2-2-6-3-10-2-4 2-6 6-5 10l-3 1a274 274 0 0 0-26-17c-2 2-5 7-11 9-1 1-6 3-11 2l-5-2-5-4c-3-2-6-2-10 0-3 1-6 4-9 7h-3L1-283l2 18-3 2a423 423 0 0 0-119-24l-5 1-7 1-2 1a167 167 0 0 0-7 71l-2 2-35 10 3 15 12 61-1 2-12 9c-1 1-2 0-3-1l-3-11a207 207 0 0 1-3-8c-9-5-18-11-29-13h-7l-2 1h-1l-1 1-1 1h-1l-1 1-1 1-2 3-1 1v2l-1 3-1 4-1 4v9l4 19c5 12 14 23 28 28a69 69 0 0 0 25 5h5l11 8 5 5 7 5a359 359 0 0 0 60 35l37 12 16 4h3l4 1 6 2v2h-12l1 3-1 6v13l-3 9c-2 2-5 2-7 3l-4 2-3 2v1l3 5 7 9c11 12 30 13 46 11 8-2 16-5 22-10a28 28 0 0 0 9-15c-5 0-9-1-13-3l-4-3-2-5a263 263 0 0 1-2-26l1 2 6-1 5-1A331 331 0 0 0 96-8c22-10 45-21 59-41 8-10 12-21 14-33s3-25 3-37c1-13 2-26 5-39l7-24c2-10 3-21 3-32l-1-21zM-179-95a30 30 0 0 1-10 19v-1l5-9a31 31 0 0 0 1-15l-1-2h-1l-2-2-3-3c-3-2-6-3-10-3l-9 2-7 7h-1l5-8a17 17 0 0 1 18-4l7 4 3 4-4-10-11-14-8-4h-9c-3 1-6 3-7 6l-2 2-1 3-1 5h-1v-6c0-2 0-4 2-6 2-4 5-7 10-8 7-2 14 1 19 6 5 4 10 10 13 16s5 14 5 21zM14-72h1l1-1h1v-1h1l1-1 1-1v-1l1-1 1-1 1-2 2 1v4l-1 1v1l-2 2c-1 2-4 3-7 4l-2-1 1-3zm-97-143c-18-6-36-9-55-12v-2h7a192 192 0 0 1 55 7c18 4 35 9 52 16 4 1 9 2 12 5s4 7 2 10c-3 3-7 4-10 3-5-1-9-4-12-6-16-8-33-16-51-21zm251 24-3-1h-6l-13 1a143 143 0 0 0-44 10l-10 4c-3 2-6 4-10 4-3 1-6 0-8-2-1-2 0-5 1-7l6-5 7-3 21-4 3-1h2l21-2 24 2 7 1 3 1-1 2z"/><path fill="#FFF" d="m45 6 18-2 18-5c11-3 21-7 31-13l30-20c8-7 17-15 22-24 6-10 7-23 8-34l2-18-1-20c0-19 7-37 11-56a159 159 0 0 0 4-49c-1-6-1-14-6-18-1-1-4-1-5 1-2 5-1 9 0 14a142 142 0 0 1 1 44c-2 18-8 34-11 52l-2 32c0 12-2 24-5 36-4 22-27 36-44 48-11 7-21 13-34 17L63-3 45 4v2zm49 397c8 8 23-8 28-14 4-6 6-12 8-18 1-2 1-4 4-4l5-1 11-6 46-28 43-28 19-16c5-6 13-14 11-21 0-2-3-3-4-2l-5 8-8 10-16 14c-12 10-25 17-38 25l-42 26c-6 4-13 9-21 12-6 1-9 2-10 9-2 7-4 13-9 19-4 6-13 15-21 14l-1 1z" opacity=".6"/><path fill="#FFF" d="M111 69c14 2 26 15 34 26l31 43 55 89c10 16 19 34 31 49 1 1 3 0 3-2-6-17-15-32-24-48l-28-47c-19-31-39-61-62-89-6-7-11-13-18-18-7-4-14-6-22-5v2zm-393 212 2-11a748 748 0 0 1 106-157l19-20c7-6 15-13 19-21 1-2-1-5-3-4-8 3-14 10-19 15a550 550 0 0 0-124 175c-3 6-9 18-2 24l2-1z" opacity=".6"/><path fill="#FFF" d="M-285 264c-4-1-9 2-9 7 0 7 7 12 11 16 12 11 25 21 38 29l43 25 49 26c3 1 5-3 2-5-24-16-51-29-76-44a388 388 0 0 1-49-35c-2-2-17-15-9-17v-2zm207 615c-5-30-3-61-3-91v-43l-5-45c-6-60-4-121-3-182l-1-51c-1-17-2-34-6-50-1-6-10-5-10 1 0 16 2 31 3 47l2 45 1 45 1 46 4 92 5 44c2 15 2 29 2 44 1 33-1 66 8 98 0 2 3 1 2 0zm148 5c0-30 4-60 8-90l7-90 9-180 5-102c1-8-11-8-12 0l-3 91-3 91c-3 60-4 121-10 181-4 33-11 66-4 100 0 1 3 1 3-1zm-203 79-2-4-1-8c0-5 1-9 5-13 4-6 11-10 17-14 7-4 12-9 18-14l10-10c3-2 8-4 10-8 1-2-1-6-4-6-5 1-9 4-12 7l-12 11c-6 8-14 12-22 18-6 5-13 11-15 19-1 7-2 20 5 25h2l1-1v-2zm204-77c3 8 10 14 15 19 7 7 14 11 21 17 6 6 11 14 15 21 2 4 2 7 1 12-1 4-4 8-2 12l4 2c7-3 9-16 8-23-1-8-8-17-14-23-6-8-14-13-22-20l-11-10-11-9c-2-1-4 0-4 2z" opacity=".6"/><path fill="#460077" d="m-72 892 6-2-6 2zM1 458l-37-5 21 24c-18 55-30 112-35 170a50 50 0 0 1-38 13c8 7 19 10 30 7 3-1 8-2 11 1l1 7-7 203c-3 6-8 10-13 13 7 0 14 6 15 14 1 10-5 19-11 26-20 22-48 36-76 36l12 4c28 0 55-10 77-26 8-6 16-14 19-23 3-12-1-24-4-35l-4-27c4-31 5-57 5-75 3-74-2-172 5-210l11-61 10-47 41-5-33-4zm-140-45c8 2 16 4 24 2 8-1 16-6 18-14 2-9-5-18-13-23s-18-6-26-10c-17-7-30-21-42-35l-60-70a400 400 0 0 1 91 90l50 9 5 25c1 15 1 20-2 24l-8 6" opacity=".4"/><g opacity=".4"><path fill="#460077" d="M99 156c-1 20-9 38-18 56l-35 74c14-8 23-22 31-36 4 18 4 38 4 56 1 19 3 39 12 55 4-32-8-64-6-97l4-24c1-19-2-38 5-55"/><path fill="#25003F" d="M98 156c-1 17-8 34-15 50l-25 50a3739 3739 0 0 0-12 30c15-8 24-22 32-35l-2-1c7 30 1 60 7 90 2 7 5 15 9 22 1 1 2 0 2-1 3-23-2-46-5-69-1-12-1-23 1-35l2-18v-16l1-19c0-7 1-13 3-19h-1c-2 5-4 10-4 16l-1 17v16l-2 18a151 151 0 0 0-1 35l4 35c2 13 3 26 1 39h2c-15-26-11-57-12-86l-4-25h-2c-8 13-17 27-31 35l2 1 25-51a2953 2953 0 0 0 22-50c3-10 5-19 6-29h-2z"/></g><g opacity=".4"><path fill="#460077" d="M72 411c3-12 8-23 15-32l6-6c3-2 6-3 10-3 11-3 22-8 31-16 6-4 11-10 16-15 26-28 55-53 85-75-40-36-74-79-109-120-9-11-19-22-31-29 4 10 11 18 19 24 7 5 15 8 20 15 5 6 7 14 12 20l11 10c13 12 19 30 30 43 9 12 22 22 27 36-5 0-10 4-14 8l-55 58c-7 8-15 16-17 26-14-2-28 0-41 4-4 2-9 4-11 7-2 4-2 8-2 12l1 22"/><path fill="#25003F" d="M72 411a113 113 0 0 1 14-29l7-8 11-3a74 74 0 0 0 28-13l16-15a592 592 0 0 1 89-80c-21-18-39-38-57-58l-53-62c-9-11-19-22-32-29-1 0-2 1-1 2a63 63 0 0 0 25 27c5 4 10 7 14 12 5 5 6 11 10 16 3 6 9 10 13 14l12 15c6 10 12 22 20 31 9 10 20 19 25 32l1-1c-8 0-13 7-18 12l-19 20-20 20-17 19c-6 6-11 13-13 22l1-1c-12-1-25 0-37 3-5 1-10 3-14 6-4 4-4 10-4 15l1 22c0 2 2 2 2 0v-18c-1-5-2-12 2-16 3-4 8-5 13-7a97 97 0 0 1 37-3l2-1c1-7 5-13 10-19l17-18 36-38 10-10c3-3 7-6 11-6l1-1c-4-12-13-20-21-29l-11-15-10-16-11-15-14-14c-4-4-6-11-10-17-3-5-7-9-12-12-6-4-13-7-18-12s-9-11-12-18l-2 2 15 11 13 14 26 31a1105 1105 0 0 0 86 92l1-2a615 615 0 0 0-86 75l-16 16a77 77 0 0 1-28 14l-10 3c-4 2-6 5-9 8a83 83 0 0 0-14 32c-1 0 0 0 0 0z"/></g><g opacity=".4"><path fill="#460077" d="M-236 265c31-45 63-88 98-130 7-9 14-17 17-28s1-24-9-30c-4-3-10-5-9-10 10 3 18 11 23 20s8 20 10 30c1 5 2 11-2 14l-7 2c-5 2-8 6-11 9-37 41-70 85-100 131"/><path fill="#25003F" d="m-236 265 31-43a2133 2133 0 0 1 65-84c10-11 21-23 22-38 0-7-1-13-5-18l-6-7c-3-1-6-2-8-5l-1-3-2 1c16 4 25 20 29 35l3 13c1 3 2 7 1 10l-2 4-6 2-9 6-18 20a1127 1127 0 0 0-82 108l-3 6a1200 1200 0 0 1 85-110l18-21c3-3 6-6 10-7s7-2 9-5 1-7 1-10l-3-13c-4-15-11-31-26-39l-6-1c-1-1-1 0-1 1-1 6 7 8 11 12 5 3 8 9 8 15 2 16-8 28-17 39a1833 1833 0 0 0-98 132z"/></g><path fill="#460077" d="M-10-269a158 158 0 0 0-107-29c-62 0-81 7-101-7-5-3-12-9-19-21a46 46 0 0 0-1 36l-10 19 11 1-11 8c3 4 8 8 13 10l-33 11c3 5 7 10 13 11l-18 6c11 13 19 29 22 46l-13-4 30 48c3-12 18-18 29-12l4-1a199 199 0 0 1-23-111l10 7-1-14c23 10 56-2 93-7 27-4 66-6 116 7l-4-4z" opacity=".4"/><g opacity=".4"><path fill="#460077" d="M14-278a308 308 0 0 0-94-103c28 8 77 29 110 78l13 24a45 45 0 0 1-14 7l-15-6z"/><path fill="#25003F" d="M14-279a143 143 0 0 0-16-27 298 298 0 0 0-77-77l-1 3a265 265 0 0 1 46 20 192 192 0 0 1 76 82v-2c-4 3-9 6-14 7h1l-15-6v2a121 121 0 0 0 12 5c1 1 2 2 4 1 5-1 9-4 13-7l1-1c-11-24-27-45-47-62a210 210 0 0 0-76-42c-2 0-3 2-2 3a319 319 0 0 1 85 87l10 15v-1z"/></g><g opacity=".4"><path fill="#460077" d="M-237-326s2-12 11-19c6-5 13-6 21-8 33-6 68-2 98 12-15-26-47-37-76-43 13-17 33-27 55-31s43-1 64 4c10 2 21 4 31 8 20 9 38 23 56 37-2-6-7-11-13-16-24-19-49-39-79-48-39-12-84-4-116 22a61 61 0 0 0-17 20c-5 11-3 21-2 26-4 1-14 3-22 12a37 37 0 0 0-11 24z"/><path fill="#25003F" d="m-237-326 1-1 1-3 5-9c3-4 6-7 11-9a171 171 0 0 1 112 9l2-2a98 98 0 0 0-58-39l-20-5 1 2c17-22 45-31 73-31a214 214 0 0 1 90 21c15 8 28 18 41 29 1 0 2 0 2-2-1-5-4-8-8-12l-11-9-26-20c-17-12-36-22-56-27a131 131 0 0 0-110 26c-6 5-12 11-16 18a40 40 0 0 0-3 29l1-2c-16 3-30 15-33 32v6c1 0 3-1 2-2 0 0 0 1 0 0v-1l1-3 4-9a37 37 0 0 1 27-20c1 0 2-1 1-2a51 51 0 0 1 0-18l1-4 1-2v-1c3-6 7-11 12-15a127 127 0 0 1 160-8l26 19 12 10c3 3 7 6 9 10 2 1 3 4 3 6l3-2a332 332 0 0 0-57-37c-7-3-15-6-23-7-30-8-63-11-93 0-14 6-27 15-36 27l1 2c23 4 46 11 64 27 4 4 9 9 12 15l2-2a169 169 0 0 0-95-13c-10 2-20 3-27 10-4 4-6 8-8 12l-1 4v2c0 1-1 0 0 0v1z"/></g><g opacity=".4"><path fill="#460077" d="M120-331c-4 0 0-22-14-48-13-24-34-37-39-40l-22-9c-14-4-35-9-62-10 20-2 37-1 50 0 0 0 30 2 45 12l12 9c10 7 23 10 34 16 16 9 28 23 36 38s13 34 16 51c-5-8-8-17-12-26-9-21-24-39-43-53 3 5 5 12 6 20 3 20-3 40-7 40z"/><path fill="#25003F" d="m120-332-1-2-1-5-3-18c-3-15-11-30-21-42a104 104 0 0 0-59-33c-15-4-30-7-45-8h-7v3a334 334 0 0 1 50 0 147 147 0 0 1 41 10l10 8 13 7c4 3 8 4 13 6 8 4 17 8 24 13 7 6 13 12 18 20 11 16 18 35 22 54l1 7 2-1c-4-5-6-12-9-18l-8-18a127 127 0 0 0-38-43c-1-1-3 1-2 2a73 73 0 0 1 2 52l-1 4-1 1c-2 0-2 3 0 3s4-2 4-4l4-11a81 81 0 0 0-5-47l-2 3a129 129 0 0 1 45 57l9 21c1 1 2 0 2-1-3-20-9-40-19-57-5-8-10-15-17-21-6-6-14-11-22-15l-27-12-12-9-9-5c-11-5-24-7-36-9l-15-1H-9l-8 1c-2 0-2 3 0 3a243 243 0 0 1 65 12 101 101 0 0 1 42 26c11 11 19 26 23 41l4 18v6l2 3h1v-1z"/></g><g opacity=".4"><path fill="#460077" d="M143-261c6-4 10-10 15-16 3-5 6-9 7-14 2-7 2-15 6-22 4 17 1 35-8 50 3 4 9 3 13 1 12-6 23-15 26-28l-1 31-2 6c-2 2-5 2-9 2h-8l-8-4c-4-2-9-1-13-2s-10-2-12-6"/><path fill="#25003F" d="M143-260a59 59 0 0 0 16-18c3-3 5-6 6-10l3-11 4-13h-3c4 16 1 34-7 48v2c4 6 13 2 18-1 7-4 13-8 18-14l5-12h-3v20l-1 10c0 2 0 5-3 6l-7 1-8-1-8-4-9-1c-5 0-11 0-14-5h-2c1 6 7 8 12 8l10 1 4 1 4 2 9 3 9-1c2-1 5-3 5-5l1-10 1-25c0-2-2-2-3 0-1 6-5 12-10 16a58 58 0 0 1-17 11c-3 1-7 2-9-1v1c9-15 12-34 8-51h-3c-3 7-3 15-5 22a160 160 0 0 1-20 31h-1z"/></g><path fill="#460077" d="M112 968c-43-6-80-44-83-87 9 10 25 14 39 10-13-9-27-20-31-35-2-7-1-15-1-22l9-153c8 4 19 1 25-6l-30-26A495 495 0 0 0-4 461a1047 1047 0 0 1 30 208c2 63-5 82-1 149 1 24 4 43 5 56-5 6-15 19-13 34 3 18 19 30 34 41 14 11 29 15 38 17M-10 70c-10-2-18-8-23-16l-1-3 2-2c5-2 7-9 7-14 0-6-2-11-1-16 25-2 53-4 53-7 0-4-31-1-67-12-63-18-121-80-142-117-5-9-10-19-18-26s-21-9-28-3c-9 8-8 22-5 33 3 12 7 25 15 34 12 12 30 15 47 15 23 30 60 44 94 58C-63-1-49 4-35 6l1 26-1 6-3 2-12 6-2 2v6c5 10 16 17 27 20s23 2 34-1l9-1c-10 1-19 1-28-2z" opacity=".4"/><g opacity=".3"><path fill="#460077" d="M-70 390c-11-22-19-45-26-69a89 89 0 0 0 52 31 468 468 0 0 1-48-143c17 25 27 36 30 35 6-3-11-49-49-138l1 253c8 4 14 11 16 20l2 8c2 3 6 4 9 4h24"/><path fill="#370068" d="M-69 390a397 397 0 0 1-26-70l-1 1a91 91 0 0 0 52 32 454 454 0 0 1-46-144l-3 1 17 24 7 7 4 4c2 1 4 0 5-2v-6l-6-24a792 792 0 0 0-40-99l-4-9c-1-1-3 0-3 1l1 99v154l1 1c4 2 8 5 11 9s4 8 5 13c0 2 1 5 3 7l5 3 11 1c6 1 12 0 17-1 2 0 2-2 0-2a97 97 0 0 1-25 0l-6-3c-2-2-2-5-3-7 0-5-2-9-5-13s-7-7-12-9l1 1v-99l-1-98v-56l-2 1 24 59a1201 1201 0 0 1 25 70l1 1v5s0-1 0 0c0 0 0 1 0 0v1c0-1 0-1 0 0v-1c-1 0 0 1 0 0h-1l-2-1-5-5a278 278 0 0 1-21-28 474 474 0 0 0 46 144l1-1a89 89 0 0 1-51-31 363 363 0 0 0 25 70h1z"/></g><path d="M-55 43h-13a156 156 0 0 0-50 10c-20 8-39 19-55 34-16 14-28 31-40 48a1010 1010 0 0 0-63 101l-4 8-5 10-3 9c-1 2 2 3 2 1l3-4 3-5 4-9a476 476 0 0 1 27-48 933 933 0 0 1 74-102 162 162 0 0 1 85-46l15-3 14-2h6v-2z"/><path d="M-288 261c-4 3-5 9-4 13 1 6 4 10 8 14l14 12a519 519 0 0 0 97 60l9 4 10 4c2 1 3-1 2-2l-8-5-8-4-17-8a605 605 0 0 1-103-72c-2-2-2-5-2-7 0-3 1-6 3-8l-1-1zm45-2 1 1 1 1 2 3 6 4 11 9a380 380 0 0 1 58 58l15 19c1 1 2 0 2-1-3-7-8-13-12-19a288 288 0 0 0-77-73l-4-1h-1l-2-2v1z"/><path d="m-229 269 13-13 12-13 23-28 45-55 12-16 6-8 6-8c1-1-1-2-1-1l-12 13-12 14-23 27-45 56-12 15-6 8-3 4-3 4v1z"/><path d="m-113 128-1 11v206l1 6v7h3v-9l1-3v-78l-1-90v-25l-1-12-1-13h-1z"/><path d="m-149 354 7 2 7 1 16 3 7 1 6 1 5 2 2 5 2 14 2 15c1 4 2 8-1 11s-7 3-11 4h-24l-9-1v2a69 69 0 0 0 15 3h16c4-1 9-1 13-3 4-3 5-7 5-11v-7l-1-8-3-16c0-5-1-9-4-12-4-3-9-3-14-4l-18-2-9-1h-9v1z"/><path d="m-135 413-6-1-2-4 2-3h1l2-2 6-3v-1a24 24 0 0 0-11 4l-3 4c0 3 1 5 3 6 3 2 6 2 8 1v-1z"/><path d="m-109 405-3-1-5-1-13-5c-10-6-18-14-22-24l-3-6-2-4-1 1c-1 3 0 6 2 9l8 14c7 8 17 15 28 17l7 1h4v-1zM37 46l12 2 11 1 19 4 17 5 8 3 7 3a140 140 0 0 1 27 16l1 1 1 1 7 6c5 4 9 9 13 15 1 0 0-1 0 0h1l1 1 1 3 4 5 8 11 19 31 26 40 23 37 9 15 9 13 4 5c1 2 3 0 2-1l-3-6-4-7-9-14-22-35-25-41-21-34a517 517 0 0 0-29-39 122 122 0 0 0-35-25 156 156 0 0 0-70-17H37v1z"/><path d="m267 261 2 7c1 3 0 5-1 8-1 5-6 9-10 12a584 584 0 0 1-108 68l-9 5-9 5c-1 1-1 3 1 2l9-3 9-4 16-8a497 497 0 0 0 79-50l15-12c4-4 9-9 10-15 1-5 1-12-4-15zm-44-2h-2l-1 1-4 1-5 4a200 200 0 0 0-35 27 305 305 0 0 0-49 61c-1 1 0 2 1 1l14-17a410 410 0 0 1 56-58l13-10 6-5 3-2 1-2 1-1h1z"/><path d="M216 266c-2-6-6-11-10-16l-10-15a1345 1345 0 0 0-72-89l-14-16-7-8-7-7c-1-1-2 0-1 1l11 14 12 15 24 29 47 60 13 16 7 8 7 8zm-87 87h-9l-8 1-16 2-8 1-6 2c-5 1-7 5-8 9l-2 16-2 16c0 4 0 8 3 12 2 3 7 4 11 4a97 97 0 0 0 27 0l4-1 5-1-1-2-7 1a183 183 0 0 1-29-1l-6-1c-3-2-4-6-3-10l2-14 2-15c0-4 1-8 5-10l5-1 7-1 17-3 9-1 8-2v-1z"/><path d="M114 414h7c3-1 4-3 4-6s-3-5-6-7l-7-2-1 1 6 3 3 2v1h1l1 1-1 4c-2 2-5 2-7 2v1z"/><path d="M89 406h8l14-5c11-5 19-14 24-25 2-3 3-7 3-11 0-1-1-2-2-1l-4 9c-2 4-4 9-7 12a57 57 0 0 1-33 19l-3 1v1zm-327-232 2 4 3 4a48 48 0 0 0 27 13l12 1c2-1 3-3 1-4a57 57 0 0 1-28-34c-1-3-4-2-4 1a59 59 0 0 0 30 37l1-4a47 47 0 0 1-40-15l-3-3h-1zm26-37 1 2 2 2 4 4 10 6c8 3 17 4 26 5l15 1c3 0 3-3 1-4-12-8-22-20-29-33l-2-6-3-5-2 1 1 5 2 6 5 10a91 91 0 0 0 26 26l1-4c-16-1-33-1-48-10l-5-4-2-1-1-1-1-1-1 1zm184 325a144 144 0 0 0 40 5h6l7-2v-2H-2l-26-2v1z"/><path d="m-7 464-7 27a547 547 0 0 0-14 72 764 764 0 0 0-8 128 1373 1373 0 0 1-2 177l-1 8h2a810 810 0 0 0 6-178 632 632 0 0 1 6-124A1351 1351 0 0 1-7 464zm-104-48 1 45 3 46 5 91 10 181 7 103h2c-2-61-6-122-9-182l-10-182-3-51-2-25-2-26c0-2-3-2-2 0zm107 49 5 26 5 26a1172 1172 0 0 1 16 122v52a1234 1234 0 0 0 6 185h2c-2-30-5-60-5-90-1-30 0-59 1-89a632 632 0 0 0-6-124A814 814 0 0 0-4 465zm104-49-4 45-2 46-6 91-10 181a3498 3498 0 0 0-2 103c5-61 8-122 11-182l11-182 2-51 1-25 1-26c0-2-2-2-2 0zM44 668v1c2 4 8 7 12 7h8l6-3c1-1 0-2-1-2l-3 1a31 31 0 0 1-9 1l-6-2-6-3h-1zm-125-10 6 5 9 3c5 0 12-1 15-6 1-1 0-2-1-2l-7 2-7 1a24 24 0 0 1-10-3l-4-2c-1 0-2 1-1 2zm25-614v2l1 3 2 5 5 10c6 7 14 12 22 14a66 66 0 0 0 53-9 33 33 0 0 0 11-17v-6c0-2-3-2-3 0l-3 9c-1 3-4 6-7 8-6 6-14 9-22 10-15 3-34 1-45-11-3-2-5-6-7-9l-3-5-1-3-2-2-1 1zm-56 94 3-11a92 92 0 0 0-3-28l-4-16c-2-5-6-10-11-14a21 21 0 0 0-17-2l-5 3 1 2 4-1h5c3 0 6 0 9 2 5 2 8 7 10 12a111 111 0 0 1 7 29l1 11-1 13h1zm215-16zm-7-6v-7l-1-13a39 39 0 0 1 17-29l3-4-1-1-4 1-5 3-9 11c-3 5-4 11-5 17-1 5-1 10 1 14l2 5 2 3zM-76 375h-1v1l1-1z"/><path d="m91 109 3 8a111 111 0 0 1 3 25c1 12 0 23-2 34a233 233 0 0 1-36 82l-10 17c-1 1 0 1 1 1l10-15a400 400 0 0 0 27-47c9-22 16-45 15-68a103 103 0 0 0-6-29l-4-8h-1z"/><path d="m94 191-4 17a432 432 0 0 0 1 142l2 10c1 1 2 0 2-1v-8l-1-8a435 435 0 0 1-4-49 600 600 0 0 1 3-84l1-18v-1zm-65 69-9 28-9 27c-1 3-3 7-2 11 0 3 4 5 7 5l6-2 5-4a245 245 0 0 0 23-16l10-10-1-1-9 8a223 223 0 0 1-30 20c-2 2-7 3-8-1-1-3 1-7 2-10l8-25 8-30h-1zm-141-55 2 13a276 276 0 0 0 10 39 425 425 0 0 0 33 77c1 2 3 1 3 0v-12l-1-12h-1l-1 12v12l3-1-12-24a375 375 0 0 1-27-75l-4-15-3-14h-2zm18 193 16 5a959 959 0 0 0 50 10 273 273 0 0 0 83 0l18-5c2 0 1-3-1-3l-16 4-16 3-32 1c-22-1-44-4-66-9l-18-4-18-3v1z"/><path d="M-98 385a296 296 0 0 0 140 15l18-3 15-3c2 0 1-3-1-3l-13 3a395 395 0 0 1-50 5 317 317 0 0 1-93-11l-15-4-1 1zM30 874c-1 1 1 4 2 5l4 5a27 27 0 0 0 34 2l5-5c1-1 0-1-1-1l-4 4c-2 2-5 3-9 4-8 3-16 1-22-5a25 25 0 0 1-7-7l-2-3v1z"/><path d="m73 882 11 11 21 19 19 17a52 52 0 0 1 4 5l1 2 2 3v1h1v1l1 2v1c0-1 0 0 0 0l-1 8c-1 4-3 8-6 11l1-1c-7 3-15 5-23 5s-16-2-23-5c-7-2-13-6-20-9a150 150 0 0 1-38-28l1 1a61 61 0 0 1 6-52l1-2c1-2-2-3-3-2v1h-1l-1 1-2 3a61 61 0 0 0-7 22 60 60 0 0 0 1 25c1 2 1 5 3 7a184 184 0 0 0 49 34c10 4 20 8 31 8a63 63 0 0 0 26-3l3-1 2-3c5-7 8-17 5-25-3-7-8-13-13-17l-27-23-12-10-8-6-3-2-1 1z"/><path d="m132 954-5 3-6 2-12 1c-9 0-17-3-25-7a246 246 0 0 1-54-34l-11-8v1l8 8 10 8a313 313 0 0 0 45 27c8 4 16 7 25 7 4 1 9 0 14-1l6-2 6-4-1-1zm-171-79-1 2-2 3-4 5-10 5c-8 3-16 1-22-4l-5-4-1 1 4 5 10 5a27 27 0 0 0 30-11l1-3 1-3-1-1z"/><path d="m-83 883-6 5-10 8-14 11-14 11c-6 6-13 11-17 18l-3 8c-1 5 1 11 3 16l3 6 2 3 4 1c5 2 11 3 17 3 11 1 22-1 32-5a191 191 0 0 0 51-31l6-6 2-3 1-3 2-16c0-11-3-22-9-32l-1-3-1-1h-1v-1c-1-1-4 0-3 2l1 2 1 2a58 58 0 0 1 6 15 59 59 0 0 1-1 35v-1c-10 11-22 20-36 27-13 7-27 13-42 15-9 0-18-1-26-5l1 1c-3-3-5-6-6-10l-1-6v-3c0-1 0 0 0 0v-1l1-2v-1l2-3 4-6 18-16 22-20 8-8 5-5-1-1z"/><path d="M-142 957c3 3 7 4 10 6l13 2c9-1 17-3 25-6a221 221 0 0 0 45-27 303 303 0 0 0 22-18l-1-1-9 7a375 375 0 0 1-54 34c-7 4-15 7-24 8a42 42 0 0 1-21-3l-6-3v1zm90-909 4-3 5-2c3-1 6-3 7-7v-7l1-8V6h-1l-1 7v8l-1 7-1 7c-1 4-3 5-7 7-2 1-6 2-7 5l1 1zm87-1-11-3-4-3-1-5-2-12-3-12h-1l1 13 2 13 2 5 4 3 12 2c1 1 1 0 1-1z"/><path d="m-23 8-6-2-8-2-16-4a273 273 0 0 1-97-47l-6-5-6-4-10-8c-1-1-2 0-2 1l8 9 10 9A257 257 0 0 0-35 9l4 1 8-1V8zm38 7h12A205 205 0 0 0 91 0l31-14c11-6 22-13 30-22 9-9 16-21 20-33s5-25 5-37l4-41 6-27c6-23 4-47 0-70l-2-8c0-1-2 0-1 1l2 16a211 211 0 0 1-3 54c-2 8-5 16-6 25-3 13-4 26-5 40l-3 36a82 82 0 0 1-43 57L94-7l-5 2-7 3a231 231 0 0 1-56 14l-5 1h-3l-3 1v1zm0-83 2-1 2-1 3-2 2-2v-1l1-1c0 1 0 1 0 0v-4l-2-1-1 2-1 1c0 1 0 0 0 0l-1 1s0 1 0 0l-1 2-1 1h-1v1l-3 2-1 2 2 1z"/><path d="M-173-64h-1 1-3l-3-1h-7c-6-1-13-2-19-5-13-6-21-17-26-30a61 61 0 0 1-3-27v-1l1-2a56 56 0 0 1 1-6l1-1 2-3 1-2s0 1 0 0l1-2h1s1-1 0 0l1-1h1l1-1h1l1-1h9c10 2 19 8 28 13l1 1s1 0 0 0c2 1 3-1 2-2v-1h-1l-2-2a60 60 0 0 0-24-13c-6-2-13-2-18 1-5 2-8 7-10 11-5 12-4 26-1 38 4 15 13 28 27 35 7 3 14 5 22 5h12l1-1h2s-1 0 0 0l1-1-1-1z"/><path d="M-233-133v-3l-1-2-1-5a141 141 0 0 0-29-44l-2 5 16 3c2 1 4-1 3-3-3-16-11-32-23-44l-1 5 11-2 11-3c2-1 2-3 0-3l-12 1-11 2c-3 0-3 3-2 4 11 12 18 26 22 41l3-3-16-4c-2 0-4 3-2 5a157 157 0 0 1 30 45l2 3v1l1 1h1z"/><path d="m-254-228-11-12-1 2 31-13c2 0 3-2 1-3l-17-9v3l12-7 6-3 5-4c1-1 0-3-1-2l-6 3-6 3-12 7c-1 0-2 3 0 3l17 9v-3l-31 13-1 3 13 12c1 1 2-1 1-2zM-36-38zm-149-99 4 11 3 11c0 1 2 2 3 1l12-9 1-2-12-61-4-17-1 3 37-11 2-2a166 166 0 0 1 7-73c1-1 0-3-1-3-2-1-3 0-3 1a157 157 0 0 0-8 75l2-2-37 10c-2 1-2 2-2 3l12 61 4 17v-2l-12 9 3 1-3-11-4-11c-1-2-3-1-3 1z"/><path d="M-135-286c9-2 18-2 26-1A609 609 0 0 1 2-265l-1-21-3 2 36 15h3c3-3 6-6 9-7 4-2 7-2 10 1l5 3 5 2c4 1 7 0 11-1 13-6 19-20 18-33 0-7-4-14-9-19-1-1-2 1-1 1 3 5 5 11 6 17s0 12-3 17c-2 6-7 11-13 13-3 1-6 2-10 1-3-1-5-5-9-6-8-5-16 2-22 8h2L0-288c-2-1-4 0-3 2l1 21 3-2a437 437 0 0 0-107-22c-9-1-20-2-29 2v1z"/><path d="m89-279 12 8a537 537 0 0 0 16 6c-1-4 1-8 5-9 3-2 7-1 10 1l3 5 1 5 2 5c2 2 5 2 7 1 4-1 8-5 11-8a68 68 0 0 0 17-30c5-16 4-33 0-48-5-16-15-31-28-43a145 145 0 0 0-50-30l-1 2 24 12 20 15c13 11 23 25 29 41 5 15 7 31 3 46a70 70 0 0 1-15 31l-10 8h-4l-2-5-1-5-4-5c-3-2-8-3-11-2-4 1-7 4-9 7l-1 6 3-1-13-7-13-7-1 1zm75 24-2-1h-1s-1 0 0 0l1 1h2z"/><path d="m152-262 1 3 2 2 6 2c4 1 8 2 12 1 8-1 16-5 21-11 7-8 9-18 9-27 0-10-3-20-8-29a124 124 0 0 0-15-22l-7-6c-1-1-2 1-1 2l4 6 4 6 9 12c4 8 8 17 9 26 1 8-1 17-5 25-4 6-10 10-18 12-3 1-7 2-11 1l-6-1-3-2h-3z"/><path d="m175-257 2 4 4 2c3 2 7 3 10 3 7-1 13-3 18-9 7-8 7-21 4-31l-7-11-3-4-3-2-2 2c4 4 7 9 9 14l2 6 1 1v5c0 5 0 11-3 15-3 6-8 9-14 9-3 1-7 0-10-1l-4-2c-1-1-3-3-4-1zm-413-15v-1h-2l-2-1h-6l2 3 5-11 3-5 2-6c0-1-2-2-3-1l-2 2-1 3-3 5-4 11c-1 1 0 3 2 3a49 49 0 0 0 7 0l2-1v-1z"/><path d="m-239-289-1-19c0-7 1-15 4-22a49 49 0 0 1 30-28l17-4 2-1c1 0 1 0 0 0h4l12-1c14 0 29 4 41 10l15 8 10 7h1s0 1 0 0c1 1 3 0 2-1v-1h-1v-1l-2-1-5-4-13-9a100 100 0 0 0-81-9c-14 5-26 14-34 27a60 60 0 0 0-3 49h2z"/><path d="M-243-297c6 5 13 8 20 11l23 4a270 270 0 0 0 68-3l8-1 7-3c2-1 1-3 0-3h-7l-7 1-13 2a300 300 0 0 1-75 1c-8-2-16-6-23-10l-1 1zm42-81v-1h-1l-1-1h-15c-6 1-12 2-18 5a99 99 0 0 0-46 34c-3 5-5 9-6 14-4 12-5 24-7 36-1 12-4 26-12 36-2 2 0 5 3 5 8-2 16-6 21-12 11-9 17-25 14-39l-2-8-1-3-1-1c0-1 0 0 0 0 0-2-3-1-3 0v1l1 1v2l1 6c0 6 0 12-2 18-3 12-11 21-22 26l-1 1c-1 0 0-1 0 0h-1l-3 1-3 1 3 5c16-19 13-45 19-68l5-15 8-11a93 93 0 0 1 52-29l8-1 7-1 2-2v1-1h1z"/><path d="m-284-263-2 2-1 3v6l1 12a48 48 0 0 1-10 34v3c1 1 2 2 4 1 18-11 29-31 29-52-1-7-2-14-6-19-1-1-2 0-2 1l2 16-1 15a52 52 0 0 1-25 34l3 5a51 51 0 0 0 12-34l-2-13-1-7v-3l1-2v-2h-2zm-11-20-10 1c-4 0-7 0-10-2-6-3-10-8-12-14l-2 4c8 0 15-2 22-5a52 52 0 0 0 21-21l2-3v-3c0-1-2-2-3-1l-1 1-2 3-3 4-7 8a46 46 0 0 1-29 11c-2 0-3 2-3 3 2 8 8 14 15 17 3 2 8 3 12 2 4 0 8-1 11-4 0-1 0-2-1-1zm54-46h-1l-1 1-3 1-5 5-7 12a44 44 0 0 0-2 29h2l1-15a51 51 0 0 1 13-27l2-3 1-1h1v-1l-1-1zm104 101 13 1a526 526 0 0 1 40 6 360 360 0 0 1 62 19c3 1 8 3 10 6 1 5-4 6-7 6-5-1-8-4-12-6a261 261 0 0 0-100-32l-7-1v2a321 321 0 0 1 105 34l12 5c4 1 8 0 11-3 2-3 0-7-2-10l-12-5a365 365 0 0 0-107-23l-6 1zm268 31-9 1a193 193 0 0 0-40 8l-7 6c-1 2-3 5-1 7 2 3 5 3 8 3l10-5a173 173 0 0 1 30-11 139 139 0 0 1 36-4h7l3 1 1-1c0-2-2-2-3-2l-7-1a215 215 0 0 0-45 0 388 388 0 0 0-34 8c-3 2-5 5-6 9l1 1 6-7 8-4 23-4a153 153 0 0 1 52 0h2l1 1v-1l1-2h-19l-20 2c-14 2-27 7-39 13l-9 4-4-1v-3c1-3 3-4 6-6 3-1 7-3 11-3 4-2 9-2 13-3l14-2 10-2v-2zm-358 79 1-5 1-2 2-3c1-2 4-5 7-6 6-2 12 0 17 4l11 14 6 18-2 11-5 10v1l6-8c2-4 3-7 3-11 1-7-1-15-4-21s-7-12-12-16c-6-5-13-8-20-6-4 1-8 4-10 8l-1 3-1 3 1 6z"/><path d="M-183-102v-3l-1-2-5-4c-3-3-7-4-11-4s-7 1-11 4c-2 2-5 5-6 9h1c2-3 4-6 7-7 3-2 6-2 9-2a17 17 0 0 1 13 6 28 28 0 0 1 2 2l2 1c0 1 0 1 0 0zm305-228c3-8 4-17 3-25 0-8-2-17-5-25a88 88 0 0 0-33-41c-14-9-30-15-46-18a191 191 0 0 0-64-2l-12 3-10 3-9 3-4 2c-1 1-1 3 1 3l4-1 4-1 10-3a199 199 0 0 1 72-2c16 2 31 6 44 14 15 8 28 21 36 36a68 68 0 0 1 9 48l-1 5 1 1z"/><path d="m32-355-13-21a146 146 0 0 0-80-54c-21-6-42-8-63-6-19 2-39 6-54 17-7 4-13 10-18 17-6 9-8 22-7 33l1 8h2c-1-12-1-25 6-35 3-6 9-12 14-16a73 73 0 0 1 23-11l13-4 7-1 7-1c20-3 41-2 60 3a153 153 0 0 1 91 58l3 5 4 4 2 4h2z"/><path d="M35-274a100 100 0 0 0-12-27 243 243 0 0 0-70-64l-16-10-17-9c-1-1-2 1-1 2l14 9 14 9 27 19a210 210 0 0 1 61 71zm-208-48 6 1h6l12 1a187 187 0 0 1 80 28l12 7c0 1 1 0 0 0l-9-8-10-7a175 175 0 0 0-84-24l-6-1-7 1v2zM-22-51l3 3a44 44 0 0 0 12 7c8 3 17 5 25 4 4-1 8-1 11-3v-1l-9-1-12-1c-7-1-15-3-21-6l-4-2-4-1-1 1z"/><path fill="#FFF" d="M-140-150c0 4 6 39 35 53 13 5 24 5 29 5 35-2 57-30 62-36l-3-5c-10-16-25-23-34-28-16-8-34-10-52-11-12-1-24-1-35 4-2 0-4 1-4 3l-1 3 6 22"/><path fill="#FFF" d="m-141-150 5 19c5 11 12 22 22 29 12 9 27 12 41 10 14-1 27-7 39-15 7-5 14-12 20-19l1-1v-1c-5-10-13-19-22-25l-12-7-14-6c-13-4-26-6-39-7s-26-2-39 3c-2 2-5 3-5 6l1 5 2 8 3 11 1-1-2-9-1-7-1-5-1-2c0-2 2-2 3-3l9-3 9-1h19c12 1 25 2 37 6 9 2 18 7 26 12 10 6 19 15 24 25v-1c-5 7-11 12-17 18-10 8-22 14-35 17-15 2-30 1-42-7-11-6-19-16-24-27a116 116 0 0 1-7-23l-1 1zm243 68c4 2 8 2 12 1l11-6c13-10 20-21 20-21 6-7 13-19 19-36a85 85 0 0 0-38-4 260 260 0 0 0-22 68"/><path fill="#080808" d="m-12-126-4-6-10-12-9-6-13-7h-2l1 2a41 41 0 0 1-19 55l-17 4-6-1a43 43 0 0 1-38-46c1-7 2-12 6-18l2-3c1-1 0-2-1-2-5 1-10 0-15 3-2 1-2 2-2 4l2 14 1 11-1 3-1-2-4-16-7-14c-3-3-3-5 1-5l11-3 15-2h6a242 242 0 0 1 33 1c5 0 11 1 16 3l16 4 8 4c8 4 14 9 19 15 4 3 6 7 9 11l3 9zm-113-14 2 13c1 4 4 7 6 11a38 38 0 0 0 31 15 37 37 0 0 0 34-24l2-11c1-5 0-10-1-15l-3-7c0-2-1-2-2-2h-2c-3-2-7-2-11-3a158 158 0 0 0-25-3l-6-1-10 1h-4c-3 2-4 4-5 7-4 6-6 12-6 19zm293-2-14-5h-22c-2 0-2 0-1 2 2 4 4 9 4 14 1 9-1 16-4 24-4 9-9 15-16 21l-3 1v2h1l11-5 2-1h1l-1 1-3 3-10 5c-6 2-12 2-17 2l-7-1-6-1c-6-3-11-7-14-13h-2c-1 1-1 3-3 2s-2-3-2-5v-5l8-18c5-8 12-14 20-19a80 80 0 0 1 39-14h16c7 1 13 3 19 6l4 2 1 1 1 1h-2zm-37 12-1-7-2-8c0-2-1-2-2-2l-9 3a82 82 0 0 0-31 17c-6 5-12 12-15 20-2 3-3 7 0 11s6 8 11 10l5 2c4 1 9 0 13-1l11-5c6-4 10-9 13-15l4-8c2-5 3-11 3-17z"/><path fill="#080808" d="M127-89h-1l2-2-1 2zm41-53c1 0 2 1 2-1v1l-1 1-1-1zm1-1-1-1 1 1zm-43 55z"/><path fill="#6DD0F0" d="M-125-140a36 36 0 0 1 10-26l5-1h10l6 1 13 1 12 2 11 3h2l2 1 3 8 1 15-2 11-8 13-8 5a36 36 0 0 1-30 4c-8-3-14-7-19-14a37 37 0 0 1-8-23zm29 27c6 2 13 2 19-1l5-3c4-4 7-8 8-13s1-9-1-13c3-4 3-8 1-12-3-6-12-8-17-3l-5-1c-5 0-9 1-13 3l-10 10a23 23 0 0 0 1 22c-4 7 2 13 8 12l4-1z"/><path fill="#6CCEED" d="M131-130a50 50 0 0 1-7 25 42 42 0 0 1-24 20c-4 1-9 2-13 1l-5-2c-5-2-8-6-11-10s-2-8 0-11a64 64 0 0 1 29-30c5-3 11-6 17-7l9-3c1 0 2 0 2 2l2 8 1 7zm-19-3c-2-2-5-2-8-2l-10 4c-4 3-7 7-9 12-2 4-3 9-3 14-2 2-3 4-3 7 1 3 2 5 4 6s5 1 6-1l4 2c6 1 11-2 16-6 4-4 7-10 9-16l3-2c4-3 5-11 2-15s-8-6-11-3z"/><path fill="#010102" d="M-65-143c2 4 2 8 1 13s-4 9-8 13c-1 2-3 2-5 3-6 3-13 3-19 1 1-3 3-5 2-8s-4-6-8-6l-6 3a23 23 0 0 1-1-21c3-5 6-8 10-11 4-2 8-3 13-3l5 1c-3 3-4 5-4 9s2 7 6 9l3 2c5 0 8-1 11-5z"/><path fill="#FEFEFE" d="M-65-143c-3 4-6 5-11 5l-3-2c-3-2-6-5-6-9s1-7 4-9c5-5 14-3 17 3 2 4 2 8-1 12zm-43 19c2-2 3-3 6-3 4-1 7 3 8 6s-1 5-2 8l-4 2c-6 0-12-6-8-13z"/><path fill="#010102" d="M118-113c-2 6-5 12-9 16-5 4-10 7-16 6l-4-2 1-1c2-2 2-6 1-9-3-3-4-3-9-2 0-5 1-10 3-14 2-5 5-9 9-12l10-4c3 0 6 0 8 2-3 2-4 5-5 9 0 5 5 11 11 11z"/><path fill="#FEFEFE" d="M118-113c-6 0-11-6-10-11 0-4 1-7 4-9 3-3 8-1 11 3s2 12-2 15l-3 2zm-36 8c5-1 6-1 9 2 1 3 1 7-1 9l-1 1c-1 2-4 2-6 1s-3-3-4-6c0-3 1-5 3-7z"/></svg>