<svg xmlns="http://www.w3.org/2000/svg" xml:space="preserve" viewBox="200 400 1650 1300"><linearGradient id="a" x1="437.1" x2="1256.9" y1="1632.3" y2="1632.3" gradientUnits="userSpaceOnUse"><stop offset="0" stop-color="#410055" stop-opacity="0"/><stop offset="1" stop-color="#410055"/></linearGradient><path fill="url(#a)" d="m1061 1678-746-20 21-67 721-5 4 92z" opacity=".3"/><path fill="#3CCACC" d="M1668 799c3-1 7 1 10 2l9 4a135 135 0 0 1 40 27 180 180 0 0 0-35-118c-13 2-27 2-40 0l-6 2c-2 1-3-1-2-2l6-11c-13 5-27 3-38-5l-4 10-2 1a276 276 0 0 1-81-34c-2 2-5 3-8 3l-9-1-7-4v1h-3a238 238 0 0 0-55 62l-23-1-27 76-1 1c-9 0-16-3-23-7l-1-2c5-7 7-16 7-24l-1-1c-4-11-8-24-19-31-8-5-18-3-25 4-8 7-10 18-9 28l5 19 6 15c2 5 5 9 9 13s9 5 14 7v2l-6 1 14 23a377 377 0 0 0 81 86l30 22c1 0 0 2-1 1l-14-8a53 53 0 0 0 34 23l13 2-5-2c-2-1-1-3 1-3l9 3a255 255 0 0 0 105 6c18-2 35-7 50-18 6-4 11-9 15-16l12-23 14-23c-7 4-15 8-24 10-12 3-25 3-37-1l-10-5c-11-7-19-19-22-32a63 63 0 0 1 1-29c7-5 15-9 24-12a89 89 0 0 1 84 18l1-2 2-15a157 157 0 0 0-50-27c-3-1-7-2-9-4-4-3-5-10 1-11zm-306-12c-1 7-2 16-8 21h-1c0-4 2-6 3-9a54 54 0 0 0 1-25l-1-1-3-1h-7c-5 1-8 5-9 9h-2c-1-6 4-12 10-14 3-1 6-1 9 1h2c-2-4-5-9-10-10-5-2-11 1-12 7h-2c0-7 6-11 12-11s12 5 15 11c3 7 4 15 3 22zm89-32 12-3a132 132 0 0 1 38-3c15 1 30 5 43 11l10 4c2 1 3 3 3 5 0 3-2 5-4 5-3 1-7 0-9-1l-23-9a192 192 0 0 0-64-8h-6v-1zm-21 54-1-1c-2-7-1-15 1-22l5-8c1-2 3-2 4-2a109 109 0 0 1 102 34c6 7 11 14 15 23 1 1-1 2-2 1l-2-3c-6 12-16 21-28 27a66 66 0 0 1-60 2 66 66 0 0 1-34-51zm219 676h1l3 1 1 3 8 3-7-7h-6zm13-18c-2-1-4 0-5 2-3 3-2 8 0 12h7c-1-4-2-8 0-12l-2-2z"/><path fill="#FF6D55" d="M1640 1490h-2l-2 5c0 1-2 3-3 2-2 0-1-3-1-4l2-3-8 1c-1 0-2-2 0-3l10-2v-2h-1l-4-2h-1l-2 2c-1 1-2 3-4 3l-1-1 2-5v-1l-4-1c-2 0-2-2-1-3l2-3 2-4-6-1c-1-1-1-3 1-3l8 1 2-3-4-7-11 8c-5 2-10 2-15 2l-16-1-18 1-3 22c3 1 6 3 10 3a275 275 0 0 0 37 7 138 138 0 0 0 27 1l1-2 8-2 2-2-1-2-1-1h-5z"/><path fill="#3CCACC" d="M1559 1457c-6 2-13-1-18-3-6-3-13-7-17-13-1-1 0-2 1-1l11 8 8 4c6 2 14 5 18-1 2-2 3-7 0-7h-11c-5-1-9-3-12-6l-5-7-5-11 1-1h1l16 12c2 1 5 3 8 1l3-4c-5-3-10-7-13-12l-5-10-4-7c-4-4-10-5-16-5l-21-2-1-1-7-9-45-63-19-25-25-26-7-6-1-1-21-15c-2-1-2-6-3-8l-2-11-4-22a1288 1288 0 0 1-18-182l2-9c3-12 3-25-2-37a48 48 0 0 0-23-24l-4-2c-9 6-18 12-25 20a98 98 0 0 0-26 45l-2 8 6 5 8 6a222 222 0 0 0 54 28c1 1 1 3-1 3a110 110 0 0 1-56-7l-8-4-4-1a229 229 0 0 0 13 63l1 1 5 4 14 6 35 8c2 0 2 3 0 3l-26 5-21 2a868 868 0 0 1 17 71l4 21a221 221 0 0 0 3 10v1l1 4 10 16c9 14 22 25 34 35l58 46 32 26 19 15 19 17v1l-2 15 1 3 2 3 4 6 8 10 9 10 5 5 4 3 10 4c5 3 10 5 16 6l7-1c4-1 5-3 5-6l-10-1c-10-1-20-8-26-16l1-1c9 6 17 13 28 14h7l7-1 1-1c1-1 0-2-1-4zm94 10-1-1h-4l-4 2 1 6 2 3 1 2v1l-1 1 1 1v1l6-1c-2-4-3-8-2-12l1-3z"/><path fill="#B0EAEA" d="m1366 1189 9 54 23 17c14 1 28 3 40 11a454 454 0 0 1 72 90l16 30c4 1 8 2 11 5 5 4 6 10 9 15 2 5 6 10 11 13l-1-1-1-3-1-3v-3h1v1l1 2 1 2 1 6 3 2v2c-2 4-7 9-12 6-4-1-6-4-9-6l-7-6 2 4 3 5c2 2 4 5 7 6 2 2 5 2 8 2 3 1 7-1 11 1s4 7 1 11l13-1a246 246 0 0 0 29-4l7-2 4-1-38-77-30-62-23-46c-5-10-10-19-18-27-7-8-16-15-26-19-11-6-23-10-35-14l-33-11 1 4c0 1 0 2-2 2-16 3-33 1-48-5zm25 55h-2l-2-1a220 220 0 0 1-3-2l4 1h1l2 1v1zm17 4h-2l-3-1-6-1 1-1 5 1h3l3 1-1 1zm134 145h1v1l1 1 1 2 1 2 2 2h-1l-2-1-1-2-1-2-1-1-1-1 1-1zm-19-28 4 7 2 3 1 2 1 2s0 1 0 0l-2-1-1-2-2-4-4-7h1zm-14-22 3 4 2 2v1l1 1-1 1-1-1-1-1-1-2-3-4c-1-1 0-2 1-1zm-45-61-5-6-2-3-2-3 2-1 2 3 2 3 4 6-1 1zm23 28-6-7-3-3-2-4 1-1 3 4 3 3 5 7-1 1zm7 10 2 4 2 3 2 3 2 4h-1l-2-3-2-3-2-4-2-3 1-1zm-8-88 4-2c1-1 2 0 1 1l-1 2-2 2-5 3-5 1-3 1-2-1v-1l2-1h3l4-2 4-3zm-35 0 3-3 8-4c5-3 11-4 17-4v2a64 64 0 0 0-23 9l-4 2-3 2c-1 1-1 0-1-1l3-3zm-15 24c3 0 5 1 7 3l2 1 2 3v1l-3-2-2-2-6-3v-1zm-19-6 1-1 4 2h2l1 1h1l-1 1h-2l-1-1-4-1-1-1zm180 212c5 0 10 0 15-2l12-6-4-7-6 1a144 144 0 0 1-21 5 188 188 0 0 1-29 1l-3 3c1 1 3 3 2 4 12-1 23 0 34 1z"/><path fill="#3CCACC" d="M1631 1466v1-1z"/><path fill="#FF6D55" d="m1636 1475-2 3 3 1 3 2-3-5-1-1zm-8-4-3 4-1 1 4 1 3-3 2-2h-2l-3-1zm12 13v1h2l-1-2-1 1z"/><path fill="#B0EAEA" d="M1171 1259c0-2 1-2 3-3a434 434 0 0 0 86-14l17-5 2 1 7 2 8 3 8 2 2 1-4-16-11-52-13 1-7 1-4 1h-3l-3-4-3-4a67 67 0 0 0-30-20l-9-2-9-1a5698 5698 0 0 0-76-2c-8 1-16 2-23 6-9 5-16 13-21 22-8 16-11 35-13 53a882 882 0 0 0-9 110 3121 3121 0 0 0-3 120v51l-1 39v20l2 1h5l10 1a98 98 0 0 0 41-8l9-5 8-5-2-12-1-15-1-30a789 789 0 0 1 38-237zm112-57v-3l1-3v-3h1l1 2v4l-1 3v1l-1 1-1-2zm-2 15 2-3v-2l1-1v-1h1v2l-1 2-2 3h-1zm-3 12 1-1v-1l1-1h1v3l-1 1v1h-2v-2zm-120 33 2-7 1-3 1-1 1-2 1 1v1l-1 2-1 3-3 7c-1 0-2 0-1-1zm-5 15 3-3c0-1 1 0 0 0l-1 5-1 4-3 9-1-1 2-9 1-5zm-48-111h5l5 1 9 5c6 4 11 9 14 16 0 1-1 2-2 1l-13-14-9-5-5-1-4-2v-1zm15 53c-10-5-18-11-25-20-1 0 0-2 1-1a94 94 0 0 0 54 28v2c-11 0-21-4-30-9zm6 228v6l-1 7h-1v-10l1-3h1zm-2 40-1-8v-4l1-3h1v15h-1zm1 23v-5l-1-3v-3h2v13h-1v-2zm1 23v-6l1 3v8h-1v-5zm2 25h-1v-6l-1-3 1-3h1v12zm0-129v5l-1 2h-1v-7l1-2h1v2zm3-26-1 5-2 8h-1a69 69 0 0 1 2-13l1-4h1v4zm5-28-1 4-1 4v4h-1l-1-2 1-2v-5l3-8 1 1-1 4zm4-31-1 4-1 9h-1a48 48 0 0 1 1-14l2-4 1 1-1 4zm2-22 1-2v-3l1-4 3-9 2 1-2 9-1 4-1 2-1 2h-2z"/><path fill="#3CCACC" d="M1734 844v1l4 4-4-5z"/><path fill="#E4FF79" d="M1020 1088a244 244 0 0 0 56-4 781 781 0 0 0 48-26l21-14c5-2 9-5 14-6h1c2-4 4-8 2-12l-1-1-2-1-2-1-6-2-21-1-32 1c-12 1-23 1-34 5a163 163 0 0 0-59 38c-4 3-7 7-8 12-1 4 1 9 2 13 7-2 15-1 21-1zm77-36 24-13 23-14v1c-6 6-14 11-22 15-7 5-16 9-24 12l-1-1zm-90 16c13 2 26 3 39 2l20-2 18-6v1c-5 3-12 5-18 6l-10 3a105 105 0 0 1-49-4z"/><path fill="#FF9479" d="M994 1104c0 4 1 7 3 11l4-2h21l24-2 24-2h1l16-5c12-6 22-15 33-24a153 153 0 0 1 25-15c2-1 5-3 8-3l4-2c3-2 7-2 11-2l-1-11c-1-2-1-4-3-5-3-2-7 0-10 1l-16 10-25 15-23 13c-5 3-11 6-17 7a242 242 0 0 1-65 2c-3 1-7 1-10 3-3 1-4 5-4 8v3z"/><path fill="#B579FF" d="m1149 1089-19 14-17 15c-5 5-11 11-17 14-7 3-15 5-22 5h-24a1720 1720 0 0 0-33 2h-20c-2 0-6 2-4 5 1 3 5 4 8 4a335 335 0 0 0 110-6l14-8 8-6 1-2-8 3c-6 2-12 4-18 4v-1l10-3 9-3a102 102 0 0 0 54-45h-1l-5 5-11 9a900 900 0 0 1 0-3l11-10 2-2c1-2 1-2-1-3l-6 1c-8 2-14 6-21 11z"/><path fill="#9BDCE8" d="M1270 1053a95 95 0 0 0 29 10c9 2 19 2 29 1a179 179 0 0 1-50-27l-12-9v5l-1 18 5 2zm24 89a269 269 0 0 0 31-4l-31-8c-5-2-10-3-14-7l5 20 9-1z"/><path fill="#F39CB5" d="M1204 1146c8 1 16 2 24 5 14 5 26 14 35 26 9 0 17-2 25-3l-5-19c-7-25-15-51-20-77a171 171 0 0 1 1-67l-3 5-8 15c-21 37-39 75-55 115h6z"/><path fill="#FFB16D" d="M1152 1066c-6 3-11 8-16 12l-14 13c-1 0-2 0-1-1l17-17 9-7-3 1-10 7c-11 7-21 17-33 25-5 3-11 7-17 9-6 3-13 5-20 4l-7 1-13 2-27 1c-7 0-17-2-23 3l-3 9c0 4 2 6 3 9l3-1h9l11 1 43-2c8 0 17-1 25-3s15-6 21-12l17-17a203 203 0 0 1 41-27l3-1c2-1 4-3 5-6 2-3 0-5-3-7-6-3-12 1-17 4z"/><path fill="#FF9479" d="m828 1432 22-2 26-3 20-2-5-40c0-3 4-4 4-1 3 13 5 27 6 40h1v1h-1v1c20 1 41-3 59-12v-124c0-3-1-6 1-8l12-14 24-28c1-1 3-1 4 1l5 26 44-25c-3-22-11-43-23-62l-50-11c-7 11-19 18-32 20-7 2-14 0-20-3-5-3-10-8-13-13l-22 24-87 89a10983 10983 0 0 1 1 109c0 11-2 24 6 33 5 4 11 5 18 4zm91-56-8-36-6-18-6-18c0-1 1-2 2-1l6 18a299 299 0 0 1 12 55zm-22-169 4 21h-1l-4-20c-1-1 1-2 1-1zm-7 74 12-1a273 273 0 0 1 38 4l-25-1h-13l-12-1v-1zm-48 53-7 42c-1 1-2 0-2-1l7-41 5-42h2l-5 42zm19 61h-2l1-50v-25l-1-25h2l1 25a684 684 0 0 1-1 75zm-40-112 12-2 13-1 26 1v1l-26 1-12 1h-13v-1z"/><path fill="#3CCACC" d="m1745 859-1-1-11-11-5 15a83 83 0 0 1 7 9l10-12zm-10 12z"/><path fill="#D3C9B8" d="M1131 1561a92 92 0 0 1-62 12c-2 0-7 0-8-2h-1l-8 8-32 29-32 25c-3 4-7 8-9 13-1 6 2 12 5 16 4 4 8 7 13 9 6 3 13 3 19 4 15 0 32 1 46-5 5-2 10-5 14-10l8-11c9-12 20-21 33-28l14-7c4-1 8-3 11-6 16-13 3-37-4-51l-7 4z"/><path fill="#998973" d="m1425 1287 1-2 1-6 1-6c-8-5-17-7-25-9l5 5 17 18z"/><path fill="#A3947F" d="m1339 1298-11-11h-158a740 740 0 0 0-29 215v19h238v-191l-40-32z"/><path fill="#998973" d="m1383 1334 1 186v-2l2-9 3-19c8-44 15-89 24-133l-17-13-13-10zm32-149 5 1a516 516 0 0 1 23 4l1-6 2-14 5-27c2-10 1-19 1-28l1-25-9 19-10 23-10 22c-3 7-6 15-10 21l1 10z"/><path fill="#B5A68C" d="m1414 1171 8-17a2224 2224 0 0 0 19-45l10-21-6 1c-19 23-30 52-31 82zm-121 75a133 133 0 0 1-15-6l-20 7c-26 9-54 14-81 16l-6 19h153l-14-19-5-13-4-2-8-2zm-343-69c7-2 13-7 17-13l2-1a18096 18096 0 0 1 54 11l7 1 3 4 2 5 5 9c8 16 13 32 15 49a12323 12323 0 0 0-50 31c-1 1-3 0-4-2l-4-24-30 35h96a1320 1320 0 0 1 8-69c3-20 8-42 24-56 14-13 33-15 52-15l39 2 9 1a456 456 0 0 1 25-62l-17 1h-22l-10 14c-8 10-18 18-29 24l-4 2-7 7a53 53 0 0 1-26 15c-13 4-27 5-40 6a348 348 0 0 1-64-1c-5-1-11-2-12-7-1-4 1-6 4-7-4-3-5-10-4-14s3-6 6-8c-2-3-3-8-3-12l-37 37-19 18-9 9-5 4-1 1c9 7 20 9 29 5z"/><path fill="#A3947F" d="M1063 1287h-98v26a17443 17443 0 0 0-1 105c-20 10-43 14-65 12-2 0-3-1-3-2v-2l-18 3-24 4-23 3h-17l-1-1v83c0 2 1 3 3 3h241v-78a4124 4124 0 0 1 6-156z"/><path fill="#F6C657" d="m1732 841-3-2v2l2 2 1-2zm-5 15 4-11-2-1-3 16 1-4z"/><path fill="#FFB16D" d="m919 1178 7 6c7 3 13 4 21 2 10-2 21-8 28-18l-5-1c-5 7-12 12-20 14-11 4-23 0-32-8l-5-2v1l6 6z"/><path fill="#FFFFA0" d="M1719 828a144 144 0 0 0-43-26c-3-1-10-4-11 2 0 4 4 6 7 7l10 3a162 162 0 0 1 44 25v-3l-7-8z"/><path fill="#FFFFA9" d="M1371 529a112 112 0 0 1 59 2v1c-8-2-17-3-25-3a112 112 0 0 0-99 52l-7 11c8-6 20-8 30-6 13 2 24 10 34 17l35 26 35 26c5 4 10 7 17 8a17 17 0 0 0 13-4l-3-3c-5-6-8-13-11-20l-10-25 2-1c5 7 8 15 11 23l10 19a44 44 0 0 0 28 17l6 2h1l-5-5c-5-5-8-12-12-18l-13-21 1-1c9 11 16 24 24 35 4 5 9 10 15 12a23 23 0 0 0 14 1h1c-8-6-16-11-22-18v-1l19 13c26 17 56 30 86 37 2-3 4-6 4-10 0-1 2-2 3-1 4 4 10 6 15 8l-10-24a218 218 0 0 0-163-125v-1c18 1 36 6 52 13a222 222 0 0 1 118 114c3 8 6 15 6 23 8 2 16 1 22-3 2-1 3 1 2 2l-6 12c16-6 29-17 39-30 0-2 2 0 1 1-7 12-18 22-31 28l4 1c24 1 50-3 72-13 11-5 21-13 29-23a106 106 0 0 0 12-104 96 96 0 0 0-50-48 127 127 0 0 0-32-9l3 3a174 174 0 0 1 35 91l1 8v3l-1 1h1v1h-3v-1h-1v-8l-2-9a191 191 0 0 0-41-89c-21-24-48-41-79-48a182 182 0 0 0-102 4c26 11 50 27 70 46 26 23 48 51 66 81 0 2-2 3-3 2a361 361 0 0 0-75-85c-21-18-45-33-72-42-21-8-44-12-67-9-16 2-32 8-45 18-8 7-16 15-22 24-10 12-16 26-23 40 12-8 25-15 39-18z"/><path fill="#3CCACC" d="m1492 1047-11 9 6 7c16 26 31 51 48 76l52 73 6 9 4 10 5 21a1085 1085 0 0 0 30 103l11 42c3 11 5 21 6 32 0 1-2 2-2 0l-2-6-3 4-4 5c-3 3-8 8-6 12l5 12c1 3 3 9 1 12l3 4c-1-2 0-4 1-5 1-3 3-4 6-4l4 1 2 1 1 1 6-3 5 4 4-1c2 0 3 1 4 3s0 4 2 6l3 1 1 1v-5l-3-8-4-7c-6-7-9-17-8-26 0-2 2-2 2 0l4 16 7 11c4 5 6 10 6 16v8c0 1 0 4-2 5 1 6 5 12 12 14-2-7-2-13-1-19l5-19v-12l-1-6-4-6-15-22 1 9c0 2-3 2-3 0-4-30-7-61-12-91a969 969 0 0 0-26-116l-4-9a1253 1253 0 0 0-59-118l-38-63v11c0 1 0 3-2 4h-1c-3-2-1-7-1-10a96 96 0 0 0-4-27l-2-4a140 140 0 0 1-36 44zm119 472z"/><path fill="#383838" d="M1705 1539c2 3 5 2 8 2l14-5a76 76 0 0 1 26-1l10 1c-2-3-5-5-9-7-10-4-21-6-32-8l-9-3-3 3c-3 2-4 6-5 9v9z"/><path fill="#3CCACC" d="M1666 1484h-7a20 20 0 0 0 14 8h-1l-6-8z"/><path fill="#FFF" d="M1544 951a82 82 0 0 0 43 5l7-2h2l-24-1a116 116 0 0 1-65-26l2 1c10 10 22 18 35 23z"/><path fill="#FFDAE5" d="m1519 848-1 10 8-5 2-7c3-19-11-44-34-49-11-2-23 0-34 7-9 6-15 15-17 23l1 12-1 1 11 12a31 31 0 0 1 5-23c-3-3-4-7-4-11a15 15 0 0 1 29-4h4c20 1 30 21 31 34z"/><path fill="#F39CB5" d="m1520 992-3 2-10 2c-17 2-36-3-48-17-7-7-12-17-13-27l-9-6c-11-8-20-16-29-25l-7 1a326 326 0 0 0-79 28l4 2 10 6c12 10 19 25 18 41a71 71 0 0 1-4 23l-1 1 3 46 9 90 4 25a92 92 0 0 0 46 6v-24a141 141 0 0 1 61-108l3-2c10-8 21-16 29-26a119 119 0 0 0 16-21l5-9v-1l-2-3-3-4zm-142 187-2-41v-20l1-20h1v41a890 890 0 0 0 0 40zm7-117c-5 1-9 0-14-1l-6-3-3-2-2-2 1-1 3 2 2 1 6 2c4 2 9 2 13 3v1zm33 17-3 14a832 832 0 0 0-16 84 596 596 0 0 1 16-99l5-13 1 1-3 13z"/><path fill="#FFF" d="M1442 827c1-9 8-18 17-24 11-7 24-10 36-7 24 5 38 31 35 50l-1 6c9-6 16-14 22-22v-1l-11-15c-15-17-35-28-58-33-14-2-29-2-43 1l-6 12-2 11c1 12 5 23 11 33v-11z"/><path fill="#FFFFA0" d="m1539 768 10 5c5 0 9-5 4-8-2-2-6-3-9-4l-10-3a153 153 0 0 0-66-5 173 173 0 0 1 71 15z"/><path fill="#F6C657" d="M1736 769a208 208 0 0 0-17-60l-24 5a178 178 0 0 1 35 121l2 3c5-22 6-46 4-69z"/><path fill="#3CCACC" d="M1678 1479h1l-3-1c-2-1-4-2-4-4l-1-3-1-2c-1-1-3 2-3 3-1 3 0 5 1 8h5l5-1zm1 7v-1l1-3h-6l-4 1 7 7 3 3-1-7z"/><path fill="#FFF" d="m1732 874 1-2-4-3-2-2-10 22h-2v8l3-4 12-15 2-4z"/><path fill="#FFDAE5" d="M1667 853c-23 1-40 21-41 38v10l9 8v-4c0-8 2-14 6-19v-4a15 15 0 0 1 25-10h1a33 33 0 0 1 32 38l14-10 1-9c-2-18-23-40-47-38z"/><path fill="#3CCACC" d="m1767 840 3 1c3 2 5 7 4 11s-5 7-8 9c-4 4-8 7-13 9-1 1-2 0-1-1l9-9 8-7c1-3 2-6-1-8 0-1-1-2-3-2-11 16-23 30-35 45l5 2 6-3 10-6c11-8 22-17 29-29 3-4 10-13 5-18-2-2-6-3-9-2l-5 2-4 6z"/><path fill="#FFFFA9" d="m1791 575-11-7-7-4 8 17a109 109 0 0 1-22 105c-9 8-19 15-31 19l17 5c10 3 22 2 32-1 29-10 47-42 47-72a86 86 0 0 0-33-62z"/><path fill="#3CCACC" d="M1771 715a65 65 0 0 1-46-9l-3 2 10 28a210 210 0 0 1 3 105l2 3 10 13c12-16 24-33 33-52a165 165 0 0 0 12-98c-7 4-14 7-21 8z"/><path fill="#FFF" d="M1721 863a92 92 0 0 0-51-22c-19-1-37 4-54 12-2 11-1 23 2 33l6 12v-7c1-18 19-39 43-40 23-1 44 18 48 36l7-24h-1z"/><path fill="#FF6D55" d="M1690 1545v10h4c14 0 29-2 44-4l8-1 6 1 9-3 6-4v-2l-2-3-1 1-15-2h-12c-6 0-11 1-17 3-4 2-12 6-16 1-4-4-2-11-1-16l6-8-11-4-2 4a65 65 0 0 0-6 27z"/><g fill="#FFF"><path d="m1664 1503 2-2-4-2 1 5 1-1zm-9-5 1-1h1l-1-1-1 1v1zm-6 5 2-2 1-1v-2l-2 1v1l-1 3zm25 6 1-1h1l1-2-6-2 2 5h1zm-9-1 1 2 1 5 1-1 1-1 1-1v-2l-2-5-1 1-2 2z"/><path d="m1676 1518-2 1-2-3h-1l-1 1-2 1-2-2h-2l-2-4-1-2-3 3c-2 1-4-2-2-3l4-3-1-6-1 1-3 3v1l-2 4-1-1v-2l-5 2h-3v-3l2-1 1-1-1-1v-1l1-2v-1l-2 1-9 3c-9 1-17 0-25-1a201 201 0 0 1-40-8c-3 0-7-1-9-3l-1 6 3 2 6 1 10 2c6 1 12 3 17 7s7 9 8 15l2 11v12l7 1 1-3v-4h1v7c21 4 42 6 64 7h-1v-5l1-1h1l1 1v4l-1 1h7c-2-8-2-17 0-25a70 70 0 0 1 6-17l-4-1-1-1v1l-2 2-2 2 2 4-1 3c-2 0-3-2-3-3l-1-1-1 1-3 2c-1 1-2-1-2-1l3-4 1-1-1-2-1-3-1 1-2 2 1 4zm-70-6-2-3-2-1v-1c-1 0 0 0 0 0h1v1l1 1a314 314 0 0 1 2 3zm7 12h-1v-2l-1-1v-3l1 1 1 1v4zm3 11v1l-1 2-1-1v-5h2v3zm2-25h-3l-2-1h-2v-2l2 1h4l1 1h1l-1 1zm12-2-1 1-2 1h-4v-2h2l1-1h2l2 1zm11-4v1h-1l-1 1-2 2-1-1v-1l3-1v-1h2zm40 29v-1l1-3h2l-1 3v2h-1v1h-1v-2zm-2 9 1-3 1-1 1 1v3l-1 2v1h-1l-1-1v-2z"/><path d="m1685 1511 2-1-8-3 4 6 2-2z"/></g><path fill="#FFC0BB" d="m1593 957-8 1-18 1c-27-2-51-18-67-38l10 15 11 11c12 11 28 18 44 18 12-1 23-4 33-10l-5 2z"/><path fill="#3CCACC" d="M1600 954h1-1z"/><path fill="#F39CB5" d="M1487 992a59 59 0 0 0 30-2h1l-1-1-6-2h-1c-13 4-28-1-39-8l-12-12-5-9-6-4 3 9c8 14 20 25 36 29z"/><path fill="#FFFFA9" d="m1303 679 5 2-4-46c-1-2 4-3 4 0l2 3v-35c0-4 1-10 5-12l3-1c-7 0-15 3-21 8h-2a96 96 0 0 1 33-48v-1a126 126 0 0 1 9-24l-18 8a71 71 0 0 0-37 50c-4 17-2 34-2 51 0 11 0 22-3 34l1-2c8-13 14-27 19-42 1-1 4-1 3 1-2 15-9 29-16 42l-2 12 1 12c1 16 6 31 4 47l-1 6 4-6c7-10 12-20 18-31h2l-9-25c-1-1 0-4 2-3z"/><path fill="#F8E8B9" d="m1489 673-11-4c-5-2-9-4-13-8-2 5-8 6-13 7-6 0-13-3-18-7l-35-26-36-26c-10-8-21-15-34-18l-9-1 5 4c0 2-3 4-4 2 0-2-2-2-3-1l-3 4v44c0 2-2 3-4 2l-2-1 5 40c0 2-2 3-3 2l-4-1a325 325 0 0 1 17 62l6-5c10-7 22-6 31 2s13 21 14 33h2c2 9 0 19-5 26 6 3 12 5 19 6a9671 9671 0 0 1 28-78l23 1c13-22 31-43 52-58l-5-1z"/><path fill="#FF6D55" d="m1564 1535 1 1h1l39 10h1l-1-9-2-12c-1-6-4-11-10-15-5-3-11-4-17-5l-10-2-5-2 2 34h1z"/><path fill="#FFF9E1" d="M1768 1549c-4 3-10 5-14 6h-17a390 390 0 0 1-172-18h-1l3 16a534 534 0 0 0 200 8l1-12z"/><path fill="#410055" d="m1351 1012-4 13a984 984 0 0 0 18 160 78 78 0 0 0 49 8l-3-11 9-115c0 1-22 88-20 112l-17 2-6-82-1 84-9-5-16-166zm149 26a720 720 0 0 0 104 172l56 216s-15 9-19 18-3 18-3 18l-8-18s6-18 14-22l2-2-13-53-42-143a1942 1942 0 0 1-111-168l20-18z" opacity=".4"/><path fill="#410055" d="M1530 669v-1 1zm0 0h-2m2 0h-2v1-1h2s0-1 0 0z"/><path fill="#410055" d="M1812 594a79 79 0 0 0-41-30 96 96 0 0 0-83-46c-50-52-89-61-115-59-29 2-48 13-89 10-17-2-32-8-49-9-20-1-40 5-56 17a160 160 0 0 0-48 75 124 124 0 0 0-30 37l-3 3h1l-1 3 4-3 13-1h1l-4 9v42l-6-3 7 45-10-3 20 68s-19 38 13 77l11 8s39 71 83 102c4 4 37 28 38 26-59-48-77-128-47-190 22-44 67-75 119-82a198 198 0 0 0 50 22c10 2 21 1 30-4l4-3v-5c-3-42-31-79-65-103-35-24-76-37-116-50 30 11 60 22 85 42a326 326 0 0 1 77 97c-29-3-57-11-84-22l1 6h-1c-7-7-15-12-23-16l13 16c-24-13-27-50-52-62 6 21 16 42 31 59-14-1-26-11-33-22-8-12-13-25-19-37-6-13-13-25-24-33 13 20 22 42 27 66-15-12-28-27-42-39s-31-23-50-26l-17-1a123 123 0 0 1 110-36c-22-8-46-13-70-13a156 156 0 0 1 223 21c-17-28-47-44-76-59 39-10 80-6 117 9 55 24 84 81 88 78 1-1-2-10-28-51 11 6 38 20 56 52 22 38 19 74 17 86 18-21 23-51 14-77a97 97 0 0 1 29 99c16-29 17-64 0-90zm-291 80 1 1-5 2-4-1 8-2zm-66-8-7-1h-1l8 1z" opacity=".4"/><path fill="#410055" d="M1775 713c6 54-9 111-43 155-16 21-36 40-48 64-4 11-7 22-14 31a90 90 0 0 1-45 24c22 1 43-14 57-31 13-18 22-39 35-58 17-26 42-47 58-74 22-35 30-79 20-119l-26 9" opacity=".4"/><g fill="#410055" opacity=".4"><path d="M1728 891c0-5 2-10 5-14l10-11 13-16c5-7 11-15 19-19h9l5 6-1 9-7 11c-11 13-24 27-41 33l-9 2"/><path d="M1728 891a30 30 0 0 1 8-16l12-13 11-14 10-12c4-3 10-7 15-4 5 4 4 11 1 16-2 5-6 9-10 13l-11 12a91 91 0 0 1-22 15l-11 3v2c3 1 7-1 10-2l8-4a126 126 0 0 0 27-23l5-6 6-8c3-5 5-11 1-17-1-2-3-4-6-4-3-1-6 0-9 1-5 3-9 7-12 11l-11 15-8 9-7 7c-4 5-9 12-8 19h1z"/></g><path fill="#410055" d="M1557 1424c4-2-15-57-53-107-21-28-59-63-80-72l-18-9c-5-4-10-10-10-17 0-13 15-21 27-21 13 1 25 6 38 7l-50-19v6c-16 1-32 0-48-2 1 12 1 24 4 36 3 11 10 22 20 29 12 7 27 8 41 13s25 16 34 28l10 13 14 26c9 14 12 14 23 30l15 27c3 1 8 3 13 7 7 6 10 13 12 17 3 4 7 9 8 8z" opacity=".4"/><g fill="#410055" opacity=".4"><path d="m1561 1559-171-74a2599 2599 0 0 0 3-144l20 14-11 95 158 78"/><path d="m1562 1558-67-29-66-29-38-16 1 1a2117 2117 0 0 0 3-113v-31l-3 2 20 14v-2l-9 74-3 21 1 1 62 31 61 30 35 17c2 1 3-2 1-2l-30-16-31-15-62-31-34-17v2l9-74 3-21-1-1-20-14a2558 2558 0 0 1-4 114l-1 31v2l67 28a19278 19278 0 0 0 106 43z"/></g><path fill="#410055" d="M1208 1280a199 199 0 0 0 73-22 800 800 0 0 0 46 24l154 124a1819 1819 0 0 0-148-144 480 480 0 0 1-23-279 117 117 0 0 1 91-47 208 208 0 0 0 117 52c-16-5-28-11-36-15-28-16-43-24-55-40-3-4-8-11-18-14h-15c-32 6-62 19-89 37l-2 6c-7 5-15 11-22 20-33 40-29 94-27 130 1 16 4 39 13 67 0 0-1 22-11 34-9 11-95 27-95 27l-34 125c-6 29-2 184-2 184-14 14-62 21-62 21 30 6 62 0 62 0 8 14 7 23 4 28-5 14-21 12-42 30-13 12-11 16-23 27a96 96 0 0 1-45 22c26 6 43 2 53-3 17-9 14-18 35-32 20-13 35-14 42-29 3-6 4-12 4-16l-5-27 12-33c155-3 220-7 220-12s-65-11-218-19c-3-39 0-71 3-93 5-32 45-174 33-130l10-3z" opacity=".4"/><g fill="#410055" opacity=".4"><path d="m1060 1512-246 11a2520 2520 0 0 0 247 12l-1-23z"/><path d="m1060 1511-96 4-96 4-54 3c-2 0-2 3 0 3a2378 2378 0 0 0 241 12h6c1 0 2-1 1-2v-11l-1-12c0-2-3-2-3 0v12l1 11 1-2h-48a2736 2736 0 0 1-198-11v3l96-4 96-4 54-3c2 0 2-3 0-3z"/></g><g fill="#410055" opacity=".4"><path d="M802 1284c11 41 4 85 15 125 1 3 2 6 5 7 3 0 5-2 7-4 3-6 4-12 5-18l11-100c-1 37 1 75 8 112 3-2 6-6 7-11l1-12-1-49 8 64 2 8c1 2 4 4 6 4 5 0 8-4 10-9 3-8 4-17 5-27l8 37c0 3 0 7-2 10-3 5-8 5-11 6l-66 8c-4-1-9-4-13-9s-4-11-4-13l-3-124"/><path d="M802 1284c4 17 5 35 6 52s1 35 4 52l2 13c1 4 1 8 3 11 1 3 4 6 7 5 4-1 6-4 7-8 2-3 3-7 3-11l2-13 3-28 6-56 1-7h-2a544 544 0 0 0 9 113c8-5 9-15 9-24l-1-31v-18h-3l7 54 2 13c1 4 2 7 5 9s6 2 9 0 4-5 6-8c3-8 5-18 5-28l-3 1c4 12 6 24 8 36v8l-5 5-9 1-55 7h-4l-4 1-6-2c-4-3-8-7-9-12l-1-14-1-41-1-66v-9c0-2-3-2-3 0l1 70 1 45 1 13a22 22 0 0 0 13 17l2 1 2 1h2l60-7c7-1 16-2 19-10v-8l-1-9-4-19-3-9c0-2-3-2-3 0 0 8-1 16-4 24-1 4-5 14-11 10-3-2-4-6-4-9l-2-12-3-25-4-28c0-2-3-2-3 0l1 30v30c-1 4-3 8-7 11h2a563 563 0 0 1-8-111c0-2-2-2-2 0l-6 54-4 27-1 13-2 12c0 4-1 8-3 11l-4 3c-2 1-3 0-4-2l-2-4-1-7-3-12c-2-16-3-33-3-50a427 427 0 0 0-6-50l-2-6s-2 0-1 1z"/></g><g fill="#410055" opacity=".4"><path d="M899 1306c8 12 11 26 14 40l9 44c1-34-7-68-23-97-1 8 2 16 5 23"/><path d="M899 1306a100 100 0 0 1 11 30l7 34 4 20h2a192 192 0 0 0-23-98h-2c-1 9 2 17 5 24h2c-3-7-6-15-5-23h-1a216 216 0 0 1 21 75l1 22h2l-8-37-7-32c-2-6-5-11-9-16v1z"/></g><g fill="#410055" opacity=".4"><path d="m962 1288-160-4 161-2-1 6z"/><path d="m962 1287-62-2a535225 535225 0 0 0-98-2v2l63-1 62-1h36l-2-1v6h2l1-6-2-2-62 1-63 1-35 1c-2 0-2 2 0 2l62 2a535225 535225 0 0 0 98 0z"/></g><path fill="#410055" d="m996 1149-1-1m1 1-1-1c1 0 0 0 0 0l1 1z" opacity=".4"/><path fill="#410055" d="m1102 1147-174 19a4869 4869 0 0 0 67-66 21 21 0 0 0 2 16s-5 3-6 10 3 11 4 12c-3 1-3 6-1 8 3 3 7 3 10 3 9 0 34 0 71 3" opacity=".4"/><g fill="#410055" opacity=".4"><path d="M992 1145c26 1 53 1 80-1 15-2 31-4 45-10 25-11 42-35 64-52-2 10-9 18-16 25-8 10-17 19-27 26-13 8-28 13-43 17-34 8-71 10-103-4"/><path d="M992 1146a445 445 0 0 0 90-2c14-2 27-5 40-11 10-6 20-14 29-22 10-9 19-19 31-27l-2-2c-1 7-5 12-9 18a228 228 0 0 1-30 30l-19 10c-13 6-27 9-41 11a140 140 0 0 1-88-6c-2-1-3 1-2 2 27 12 57 12 85 7 15-2 29-5 42-10a103 103 0 0 0 37-24l8-9 8-8c5-6 10-13 11-20 1-1-1-2-1-1-20 14-35 34-56 47-12 6-25 10-38 12-15 2-29 3-44 3l-51 1v1z"/></g><g fill="#410055" opacity=".4"><path d="M995 1137c-2-1-2-4 0-5 1-2 4-1 6-1a440 440 0 0 0 77-2c6-2 13-6 18-10 23-15 43-36 69-44-12 8-24 15-34 24-9 9-16 20-27 27-13 8-28 9-44 9l-62 3"/><path d="M995 1136v-2c0-2 2-2 3-2h4l5 1a505 505 0 0 0 63-1c13-2 24-9 34-16l28-21c10-8 21-15 34-18l-1-2a358 358 0 0 0-30 20c-9 7-15 16-23 24-5 4-9 7-14 9l-17 5-17 1-20 1-45 2c-2 0-2 2 0 2l40-1 21-1 17-1c12-2 23-5 32-12s15-17 23-24l16-13 9-5 9-6c1 0 1-2-1-2-23 7-41 24-61 38l-16 10c-6 4-12 6-19 7l-21 1h-23l-24-1c-3 0-7 0-8 3-1 2-1 5 2 6v-2z"/></g><g fill="#410055" opacity=".4"><path d="M998 1115c-3 1-4-4-2-6s5-2 8-2l26-1c19 0 38-1 55-9 14-6 25-16 37-25s25-18 39-20l5 1c1 0 3 2 2 3 0 3-3 3-5 4-17 3-33 10-46 21-9 9-18 19-29 25-10 5-23 7-35 8-19 1-39 2-58 1"/><path d="M998 1115c-2 0-2-3-1-5s4-2 7-2l21-1c12 0 25 0 38-2a90 90 0 0 0 35-13c11-7 20-16 30-23s21-13 33-15h4c1 0 3 1 2 3s-5 2-6 3c-6 1-12 2-18 5-11 4-21 11-30 19s-17 17-28 22-25 6-37 7l-43 1h-10a670 670 0 0 0 86-4l16-8 14-13 14-13a107 107 0 0 1 35-15c3 0 6 0 8-2 2-1 2-4 0-6s-5-2-8-2l-9 3-17 8c-11 7-21 16-31 24l-17 10c-6 3-13 5-20 6-13 3-27 3-41 3h-22c-2 1-5 1-7 3-2 1-3 3-2 5s2 4 4 3v-1z"/></g><g fill="#410055" opacity=".4"><path d="m1573 1462 1 47c0 6 0 12 3 17 3 6 8 10 14 13a356 356 0 0 0 117 23c13 1 26 1 39 4-61 5-123 1-182-12-5-26-7-54-4-80 0-3 1-6 3-8s5-3 7-1"/><path d="M1572 1462v50c1 7 2 14 7 20 4 5 11 8 17 11 15 7 30 11 46 14s32 5 49 6l25 1c8 0 16 0 24 2l6 1 1-3a605 605 0 0 1-182-12l1 1c-5-25-6-50-4-76 1-3 0-6 2-9 1-2 4-4 5-2 2 1 4-1 3-2-2-2-5-2-7-1-3 1-4 3-5 6l-1 9-1 11a277 277 0 0 0 6 66 622 622 0 0 0 183 12c1 0 2-3 0-3-16-4-32-3-48-4a414 414 0 0 1-94-16l-20-10-7-7c-2-3-2-7-3-11v-11l-1-12v-25l-1-6h-1z"/></g><linearGradient id="b" x1="190.6" x2="1010.5" y1="1405.7" y2="1405.7" gradientUnits="userSpaceOnUse"><stop offset="0" stop-color="#410055" stop-opacity="0"/><stop offset="1" stop-color="#410055"/></linearGradient><path fill="url(#b)" d="m814 1523-745 4 48-182 685-61 1 129 7 18 4 92z" opacity=".3"/><path fill="#F6DCFF" d="M1654 982c0-1 11-8 21-21 9-11 13-22 15-26 16-39 65-80 87-134 8-19 16-50 11-93l4-2c9 58-3 94-17 116-11 19-21 22-45 60l-35 56c-4 7-10 21-24 33-8 7-16 11-17 11zm-210-37a403 403 0 0 1-90-110c-6-5-21-19-27-44-4-21 1-38 4-45-11 8-15 22-13 35 2 14 7 24 14 37l14 18a258 258 0 0 0 98 109zm-114-199c0-19-6-39-15-56l4 1c0-13-1-26-4-38h2c1-16 0-32-4-47v37c-3 0-5-2-7-3 3 15 5 30 5 46l-7-2c8 22 15 44 20 67l8-7"/><path fill="#F6DCFF" d="M1331 746a111 111 0 0 0-15-56l-1 1 4 1c1 1 2 0 2-1-1-13-2-26-5-39l-2 2 3 1 2-2c0-16-1-32-4-47-1-2-3-2-3 0v37l1-1-6-3c-1-1-2 0-2 1 2 8 3 15 3 23l2 23 1-1-7-2-2 2a448 448 0 0 1 23 67l7-7c1-1 0-2-1-1l-8 6 2 1a391 391 0 0 0-20-67l-2 2 8 1 1-1-2-23-3-23-2 1 7 3 1-1c0-12 0-24 2-37l-3 1c3 15 5 31 4 47l2-2h-3c-1-1-2 0-2 1 3 13 5 26 5 39l2-2-5-1c-1 0-2 1-1 2a117 117 0 0 1 15 55h2zm-270 823c-5-117-2-234 14-350 3-20 7-41 21-56 10-11 24-17 39-19 14-2 29-1 43 0-15 3-31 6-46 12s-29 14-38 27c-12 17-14 38-16 59-10 108-11 218-13 327"/><path fill="#F6DCFF" d="m1062 1569-1-50a2142 2142 0 0 1 16-303c2-14 5-28 11-40 7-12 18-21 31-26 15-6 31-6 47-5l12 1v-3c-28 5-59 10-80 32-20 22-21 53-23 80a2575 2575 0 0 0-10 200l-2 101v12c0 3 4 3 4 0l1-99a4625 4625 0 0 1 9-196l4-47c2-14 5-28 13-40 16-24 46-33 73-38l12-2c2 0 1-3-1-3-29-4-64-4-85 21-9 10-13 23-16 36l-7 47a1678 1678 0 0 0-11 310l1 12h2zm-68 102c-8-2-11-13-8-20 3-8 9-14 15-20l43-38c7-6 14-13 19-22a30035 30035 0 0 1-79 66c-4 5-6 11-6 17 1 6 5 12 11 13"/><path fill="#F6DCFF" d="M995 1671c-7-3-9-10-9-17 1-8 8-14 14-20l45-40c7-7 14-13 19-22 1-1-1-3-2-2l-49 39-23 18c-6 6-12 13-13 22s3 19 12 20c2 0 2-2 1-3-7-2-11-9-10-16 1-9 7-15 14-21l22-18 22-18 26-21-2-1c-5 8-12 14-18 20l-24 22-23 20c-6 6-12 13-13 21-1 7 3 16 10 18 1 1 2-1 1-1zm352-646a900 900 0 0 0 22 223 490 490 0 0 1 126 148 170 170 0 0 1 40 1c-7-3-15-6-26-7h-11l-10-12c-17-21-24-34-34-49a284 284 0 0 0-82-85 1933 1933 0 0 1-23-203m185-10a3067 3067 0 0 1 92 173l14 39c32 100 36 183 36 183l-11-104-27-112-40-81-62-104-2 6z"/><path fill="none" stroke="#000" stroke-miterlimit="10" stroke-width="4.6" d="M1169 1284h160m-367 0h103"/><path fill="none" stroke="#000" stroke-linejoin="round" stroke-miterlimit="10" stroke-width="4.6" d="M1059 1524H816c-3 0-6-3-6-6v-88"/><path fill="none" stroke="#000" stroke-miterlimit="10" stroke-width="4.6" d="m1381 1328 1 196h-242"/><path d="M1182 1084h31l11-1v-2l-11-1h-26l-5 1c-2 0-2 2 0 3zm-264 89h2l15-13 14-14 29-28 16-16c1-1-1-3-2-2l-15 13-15 14-28 28-16 16v2zm527 22 2-4 1-6 2-10 4-21 1-10 1-6v-51l-2-2-9 1c-2 0-2 2 0 2h9l-1-1-1 43v10l-2 11-4 21-2 11-1 7 1 5h1zm-16 96 1-6 1-5 1-6v-5l-2-1-2 6-1 5-1 6-1 5c1 2 3 2 4 1zm-44 237 2-4 1-4 1-8 3-17 7-34a5315 5315 0 0 0 18-106c0-2-3-2-3-1l-7 34-6 34-12 67-3 19-2 10v5l-1 2 1 2 1 1zm-108-291-17 5a334 334 0 0 1-86 15 761 761 0 0 0-39 280v6a72 72 0 0 0 2 12c1 2 4 2 4 0v-52a892 892 0 0 1 36-242l-3 2a372 372 0 0 0 104-23c2-1 1-3-1-3z"/><path d="M1224 1150a428 428 0 0 0-77-8c-18 0-38 2-52 15-15 14-20 36-24 56a681 681 0 0 0-10 107 2561 2561 0 0 0-3 220l1 26v3c0 2 3 2 3 0v-59l1-51a3830 3830 0 0 1 6-179c2-18 3-35 6-52 2-17 4-36 13-52 5-10 12-18 21-22 7-4 16-5 23-6h33l43 2a409 409 0 0 1 16 0zm171 112a2741 2741 0 0 0 27 8h1-1 1l2 1a38 38 0 0 1 10 6c-1 0 0 0 0 0l1 1 1 1 7 6a265 265 0 0 1 23 27v1l1 1 2 2a955 955 0 0 1 29 40l20 31 5 7c1 1 3-1 2-2l-4-8-4-8-9-15a412 412 0 0 0-44-63c-8-10-17-19-27-27l-14-7-20-4h-8c-2 0-2 2-1 2zm-90-17c2 0 2-2 0-2s-2 2 0 2zm-27-5v-3c-2 0-2 3 0 3zm135-53 35 12 20 8 15 6c10 5 19 11 27 19 7 8 13 17 17 27l23 46 31 62 38 77 6 10c0 2 3 1 2-1-5-14-12-28-19-42l-18-39-31-64-24-48c-4-9-9-18-16-26-7-9-16-17-27-23l-32-13-21-7-19-5-7-1c-1-1-2 2 0 2z"/><path d="m1197 1148 13-29a856 856 0 0 1 43-88l8-15 8-14-1-1-9 11-8 13a561 561 0 0 0-54 123z"/><path d="M1410 918a225 225 0 0 0-107 39c-19 14-34 33-40 57a181 181 0 0 0 0 64c5 26 13 51 20 77 7 25 13 50 17 75 2 11 4 22 10 33 8 13 17 25 29 35 18 16 38 31 57 46l65 51 21 15c1 1 2-1 1-2l-19-16-19-16-32-25-57-47c-13-10-26-21-35-35a78 78 0 0 1-14-31l-4-21-8-36-23-85a196 196 0 0 1-4-79c1-7 4-13 7-20 4-9 11-18 19-26 15-15 34-26 54-34 17-6 35-11 53-15l9-1c2-1 2-3 0-3zm69 138a948 948 0 0 0 45 76 1713 1713 0 0 0 64 91l2 2v3l2 6 2 11 10 36c6 23 14 45 21 67l20 75 2 6c0 2 2 1 2 0l-1-7-1-8a941 941 0 0 0-36-127l-9-34-5-21-1-5-1-3-2-3-6-8-52-73-48-76-6-8c-1-2-2-1-2 0zm54-33 41 69a1368 1368 0 0 1 60 118l4 9a360 360 0 0 1 8 30 937 937 0 0 1 29 168l1 9a597 597 0 0 0-5-81 927 927 0 0 0-28-127l-4-10-4-10-10-21a1165 1165 0 0 0-84-148l-6-8c-1-2-3 0-2 2zm179-54v-1 1z"/><path d="m1474 967-7-5-7-6a339 339 0 0 1-48-39c-18-18-35-37-49-58l-9-15-9-13c-1-2-3-1-2 1a220 220 0 0 0 34 55 328 328 0 0 0 87 76l9 5c1 1 2 0 1-1z"/><path d="M1355 833a32 32 0 0 1-19-12l-5-8a114 114 0 0 1-10-34c0-6 0-12 2-17l3-6a26 26 0 0 1 16-12h6l7 3c11 6 14 20 19 31h1c-1-12-4-25-14-34-4-4-10-6-16-6-5-1-11 1-15 4-5 3-9 8-12 13-3 6-4 12-4 18l3 21 7 19c2 7 6 13 12 18 5 4 13 7 19 4v-2z"/><path d="M1334 765c0-4 4-8 8-8 5 0 9 2 11 6 3 4 4 9 5 13a61 61 0 0 1-2 24l-3 8 2 1c4-4 5-11 6-16l1-18c-1-5-2-11-6-15s-9-7-14-6-10 5-10 11h2z"/><path d="m1361 774-3-4-4-2c-3-2-6-2-9-1-6 2-11 8-10 14 0 2 2 1 2 0 2-4 4-8 9-9h7l3 1 3 2c1 1 2 0 2-1zm-36-26-1-7a160 160 0 0 0-5-20 328 328 0 0 0-14-40l-3 3 9 2c1 1 3-1 3-2l-6-49-4 1c1 4 3 7 7 9 2 1 4 0 4-2v-38l1-9c1-2 4-2 5 0 1 1 4 0 4-2-1-3-5-4-8-4-4 1-6 5-6 8l-1 14v31l3-2-5-6c0-1-1-2-3-2l-2 2 5 49 4-2-9-3c-2-1-4 2-3 4 7 16 13 33 17 51l2 7 2 7c1 2 4 2 4 0zm176 235c14 6 30 9 45 12 19 2 39 2 58 1s39-5 56-14c9-5 16-10 22-18l12-21c6-12 13-24 21-35 10-15 23-30 34-44 12-14 23-29 31-45a170 170 0 0 0 19-82l-3-24-2-10c0-1-3-1-3 1l2 10 1 11a163 163 0 0 1-14 80c-7 16-17 31-28 45l-34 43c-9 13-18 26-25 39l-13 24-2 5-1 1s0-1 0 0h-1l-1 2a40 40 0 0 1-6 5v1h-1l-2 2c-15 10-32 15-50 18a258 258 0 0 1-56 2 254 254 0 0 1-58-12c-2 0-3 2-1 3z"/><path d="m1767 835 5-2 5-1c3-1 6 0 8 2s2 5 1 8l-5 9c-8 12-18 22-30 30l-10 7c-4 1-7 2-11 1h-3v4c4 3 9 3 13 1l10-6 20-15 16-19c4-6 9-16 3-23-2-3-7-4-11-4l-7 2c-2 1-4 2-6 5l2 1z"/><path d="M1760 843h5l3 2c3 2 3 5 1 8l-8 7-9 9c-1 1 0 2 2 1l12-9c3-2 7-5 8-10 1-4-1-8-4-10l-6-1h-3l-1 2v1zm-122-244a387 387 0 0 0-65-81 281 281 0 0 0-73-47 180 180 0 0 0-71-13c-10 1-21 3-31 6l-19 10c-9 6-17 13-23 21a155 155 0 0 0-28 54c0 2 2 3 3 1a253 253 0 0 1 23-43 131 131 0 0 1 18-20l3-2 1-1 1-1c5-4 11-8 17-10l2-1 1-1 3-1a100 100 0 0 1 15-4l4-1h3-1 1c11-2 22-1 33 0h1l3 1h4l9 2a181 181 0 0 1 53 23 276 276 0 0 1 71 58c12 12 23 26 33 40l7 11c1 2 3 1 2-1z"/><path d="m1495 475 1-1h2c0-1-1 0 0 0v-1l8-2 25-6h3l2-1h2c-1 0 0 0 0 0l9-1a189 189 0 0 1 59 5 150 150 0 0 1 78 48 163 163 0 0 1 27 41l3 7a200 200 0 0 1 11 42l1 2v2s0-1 0 0v4l1 1v4c0 1 0 0 0 0v1c0 1 0 0 0 0v3h1-1c0 2 3 2 3 0 0-1 0 1 0 0v-1l1-1v-3l-1-8a160 160 0 0 0-15-56 161 161 0 0 0-140-97 200 200 0 0 0-66 8l-5 1-1 1h-1s1 0 0 0l-2 1-3 1h-1l-1 1h1-2l-1 1c-2 1 0 4 2 4zm5 181a137 137 0 0 0 15 13 229 229 0 0 0 68 34l23 6 2-1c3-4 4-8 5-13l-3 1c12 11 30 13 44 6l-2-2-8 14c-1 1 0 3 2 2a76 76 0 0 0 42-32c1-2-1-3-2-2l-6 9a71 71 0 0 1-24 18l-11 4 1 3 8-15c1-1-1-3-2-2-13 6-29 4-40-5-1-1-3-1-3 1l-4 11 2-1a252 252 0 0 1-88-38l-10-6-9-7v2z"/><path d="m1652 714 18 2a168 168 0 0 0 55-10c13-4 24-11 34-20a112 112 0 0 0 22-104 93 93 0 0 0-48-56 116 116 0 0 0-44-12h-2v1l5 1 8 1 24 8c10 5 20 11 28 18a97 97 0 0 1 30 68 110 110 0 0 1-21 67c-7 9-17 17-29 22a178 178 0 0 1-72 13l-8-1v2zm-198-160a230 230 0 0 1 87 34 212 212 0 0 1 75 88c4 7 6 14 9 22l3 5c0 1 3 1 2-1l-2-11-4-12a192 192 0 0 0-40-60 217 217 0 0 0-124-66l-6-1v2zm72 119h-1v1h1l1-1h-1zm-2 1h-3l-3 1h-7c-5-1-9-4-13-7l-9-12-9-14-12-16-1 1 10 16 9 15c6 9 13 17 24 19l8 1c2 0 6-1 7-3l-1-1z"/><path d="m1501 672-4-1a71 71 0 0 1-13-3c-6-2-11-5-15-8-9-8-14-19-19-30-2-6-5-14-9-20l-2 1 7 19 8 18 11 14a48 48 0 0 0 25 11l5 1h6v-2z"/><path d="m1465 658-3 2-4 2-7 1c-6 0-11-3-16-7l-18-13-18-13-35-26c-10-7-21-15-34-17-12-3-27-1-35 9-1 2 1 3 2 2 4-3 9-6 14-7h17c12 2 23 10 33 17l36 26 18 13 17 13c6 4 12 8 19 8 6 0 13-3 15-9l-1-1z"/><path d="m1296 598 4-7c1-3 3-7 6-10a114 114 0 0 1 60-47 114 114 0 0 1 62-2l2 1v-2l-7-2-14-3a110 110 0 0 0-114 70v2h1z"/><path d="M1339 523h-5l-5 1a76 76 0 0 0-26 15c-10 9-18 20-22 33-6 16-6 33-5 50 0 15 1 29-3 44-3 12-8 25-18 33l-4 2 3 4a170 170 0 0 0 44-70l3-10c0-2-3-2-3 0l-4 8a272 272 0 0 1-10 24 180 180 0 0 1-33 44c-2 2 0 6 3 4 11-7 18-18 22-31s5-28 4-42c0-16-2-34 2-50 3-14 9-26 19-36 10-9 21-16 34-20l4-2v-1z"/><path d="M1281 665c-2 3-2 7-3 11v11c0 7 1 15 3 22 2 14 4 28-2 41-2 6-6 12-12 15l3 4c14-13 26-28 35-45l6-15c0-2-2-3-3-1l-13 24a154 154 0 0 1-28 33c-2 2 0 5 3 4 11-6 16-19 18-31 1-16-4-31-5-47l-1-12 2-13c0-1-2-2-3-1zm443 41c6 3 12 6 18 7 9 3 19 4 29 2 17-3 32-14 42-28a81 81 0 0 0 3-92 88 88 0 0 0-47-36v2l11 7 11 7c6 5 12 11 17 18 10 13 16 28 16 44 0 15-4 30-12 43s-20 24-35 29c-16 5-33 3-49-4l-3-1c-1-1-1 1-1 2zm-349 72c1 9-1 17-7 25l1 2c7 4 14 6 22 7l2-1 21-60a1131 1131 0 0 0 4-16l25 1 2-1a204 204 0 0 1 53-62c1-1 0-3-1-2a159 159 0 0 0-45 46l-10 16 2-1-25-1-2 2-21 60a1136 1136 0 0 1-4 16c-8-1-15-3-21-7v2c5-7 8-17 6-27 0-1-2-1-2 1zm241 75c16-9 35-14 54-12a86 86 0 0 1 51 22 116 116 0 0 1 11 9h1v1c1 1 3-1 2-2 1 1 0 0 0 0v-1l-1-1-2-2-6-7a90 90 0 0 0-87-20c-9 2-17 7-24 12-1 1 0 2 1 1zm-186-52c0 24 12 49 34 60 19 9 42 7 60-3 12-6 22-16 28-27 1-1 0-2-1-1l-11 13-13 10c-9 6-19 9-29 11-10 1-20 0-30-4s-19-11-25-20c-7-12-11-25-12-38l-1-1z"/><path d="m1615 853-2 9 1 19c2 8 6 16 11 22 6 7 13 12 22 15 11 4 24 4 36 1 15-3 27-11 37-22l11-14 4-10v-1c0 1 0 0 0 0h-2s1-1 0 0v1l-1 1-2 5-9 12a70 70 0 0 1-67 26 47 47 0 0 1-36-31c-3-10-4-22-2-32v-1h-1zm-54 68h8l3-1 3-3-1-1-6 4-6-1c-1 0-2 1-1 2zm-52 16 3 5 6 6c5 5 11 9 18 12 16 9 35 9 52 3 6-2 12-5 17-9 2-1 1-3 0-3-18 1-37 1-55-4a131 131 0 0 1-52-30h-2c3 8 8 14 13 20l1-1c-5-6-9-13-12-19l-1 1 16 13a150 150 0 0 0 33 17l26 5 33 1-1-3c-11 8-25 13-39 14-16 0-32-7-44-18l-7-6-4-5-1 1z"/><path d="M1499 920c6 8 13 15 21 21a89 89 0 0 0 64 17l9-1c2-1 5-1 7-3v-1l-7 1-7 2-16 1c-9-1-18-3-26-6a109 109 0 0 1-44-32l-1 1zm-47-164h23a175 175 0 0 1 66 16c3 2 7 3 10 3 3-1 6-3 6-6s-2-5-4-6l-10-4a146 146 0 0 0-92-4v1l11-2a127 127 0 0 1 32-2 155 155 0 0 1 51 9l5 2 4 3c3 2 1 6-2 6-4 1-8-1-11-3a174 174 0 0 0-89-15v2zm296 105-14-16-17-13c-11-8-24-14-37-19l-10-3c-3-2-5-4-4-7 1-4 6-2 9-1l9 4a148 148 0 0 1 63 56c1 1 2 0 2-1l-6-8a169 169 0 0 0-20-24 135 135 0 0 0-45-28l-5-1-5-1c-3 0-4 3-4 6s2 5 4 6l11 4a132 132 0 0 1 30 14c12 8 24 18 34 28l4 4h1zm-317-53v-6l2-8c1-5 4-9 7-13l-2 1 6-1 2-1c1 0 0 0 0 0h8a110 110 0 0 1 62 14 100 100 0 0 1 32 31 627 627 0 0 1 8 7l-5-10-10-12a108 108 0 0 0-101-35l-4 1-3 4-2 4-3 11a38 38 0 0 0 1 13h2zm84 179 5 5 2 2 1 2 1 1 2 4c4 7 5 15 6 23v14l1 5 2 1 2-5v-5a126 126 0 0 0-3-23c-1-7-4-13-8-18l-3-3-3-2-3-3-2 2z"/><path d="M1692 714a194 194 0 0 1 35 100 181 181 0 0 1-12 71v3c-1 1 1 2 2 1a230 230 0 0 0 21-67 209 209 0 0 0-16-113l-1-2c-1-2-4 0-3 1a177 177 0 0 1 10 25 201 201 0 0 1-12 152l-1 3 2 1a186 186 0 0 0-7-151 160 160 0 0 0-16-25c-1-2-3 0-2 1zm-330 473a95 95 0 0 0 52 8l2-3h-1l1-1h-1v-8a132 132 0 0 1 4-45 135 135 0 0 1 54-75c2-2 0-6-2-4a141 141 0 0 0-59 134l1-2c-9 1-18 1-27-1-8-1-15-3-23-6-1 0-2 2-1 3zm-45-237 1 1 2 1 4 2 8 5c6 5 11 12 14 19 3 6 4 13 4 20a71 71 0 0 1-3 25h-1v1c0 1 2 2 3 0-1 0-1 0 0 0v-1l1-1 2-6 2-17-3-21a49 49 0 0 0-29-28l-2-1h-2l-1 1zm137 8 4 6c2 4 4 7 7 9 8 8 19 14 30 15l15-1v-2l-13-1a52 52 0 0 1-37-21l-4-6c-1-1-2 0-2 1z"/><path d="M1445 951c1 11 7 21 14 29a53 53 0 0 0 49 16 52 52 0 0 0 12-4h1v-1c2 0 1-2-1-1h1-4l-7 2h-23c-16-4-29-15-35-29l-5-12h-2zm-85 103 2 2 3 2 6 3c5 1 9 2 14 1v-1a66 66 0 0 1-21-6l-3-2-1 1zm-96-29 11 10a191 191 0 0 0 58 31v-3a99 99 0 0 1-64-10l-6-3c-1-1-2 1-1 1l5 4 7 3a99 99 0 0 0 47 9l13-1v-2a237 237 0 0 1-56-30l-6-5-7-5-1 1zm11 88c-1 3 1 7 4 9l9 6a181 181 0 0 0 45 11v-3l-26 5-12 1-7 1h-3l-3 1v2h6a134 134 0 0 0 20-2l25-5c2 0 2-2 0-3a266 266 0 0 1-50-15l-5-3-2-5h-1zm184-43h2l2-1 3-3 9-6 17-13a138 138 0 0 0 30-35c2-3 5-7 6-11 1-2-2-3-3-1l-6 9a122 122 0 0 1-15 21c-9 10-19 18-29 26l-10 7-4 3-1 2-2 1 1 1z"/><path fill="none" stroke="#000" stroke-miterlimit="10" stroke-width="3.7" d="m1626 903-1-12c1-18 19-38 42-39 25-2 46 20 47 39 1 4 0 8-1 10"/><path d="M1679 919c9-2 16-6 20-9l1-6a33 33 0 1 0-64 9c5 3 23 11 43 6z"/><circle cx="1655" cy="881.6" r="14.6" fill="#FFF"/><circle cx="1675.5" cy="893.1" r="5.8" fill="#FFF"/><path d="m1517 859 2-11c-1-13-11-33-31-34a33 33 0 0 0-34 39c5 3 11 7 20 10 20 6 38-2 43-4z"/><circle cx="1470.3" cy="819.4" r="15" fill="#FFF"/><path d="m1528 856-3-2 2-8c3-19-10-43-33-48-11-2-23 0-34 7-4 3-14 10-16 22-1 8 1 14 2 17l-4-3c-2-5-2-10-1-14 1-9 8-18 17-25 11-7 25-10 37-7 24 5 39 31 36 51l-3 10z"/><circle cx="1489.5" cy="835.1" r="5.2" fill="#FFF"/><path d="M1625 1453c-6 5-14 9-21 9l-12-1a125 125 0 0 0-29 0l-2 2a194 194 0 0 0 1 93l2 2a527 527 0 0 0 209 6c3-11 3-23-5-32-6-8-16-11-25-14l-27-6a272 272 0 0 1-66-26l1 1-12-17-12-18c-1-2-4 0-3 2l13 22 6 10 4 6 6 3a313 313 0 0 0 70 26l17 3 8 3 4 1h1l2 1c6 3 10 7 12 13 2 7 1 13-1 20l3-2a530 530 0 0 1-204-8l2 2a189 189 0 0 1-1-90l-3 2c9-1 19-2 28-1l12 1a33 33 0 0 0 24-12c1-1-1-2-2-1z"/><path d="M1566 1538a378 378 0 0 0 179 16h-1 13c6-1 12-4 15-10 1-2-1-3-3-2-2 2-4 5-8 6-2 2-5 2-8 3h-8v-1l-2 1h-4a385 385 0 0 1-169-14l-4-1c-1-1-2 2 0 2z"/><path d="m1717 1514-8 4-6 8c-2 5-3 13 1 17 3 2 7 1 10 1l8-3a69 69 0 0 1 28-3l7 1 7 1c2 0 2-2 1-3l-12-2a91 91 0 0 0-34 3c-3 1-5 3-8 3-3 1-5 0-6-2v-8c1-4 2-7 5-10l7-5v-2zm-27 41v-10l1-13c2-8 5-15 9-21l-1-2v1l1-1-2-1v1-1h1l-2 1a69 69 0 0 0-9 47c1 1 2 1 2-1zm-82-8v-9l-1-9c-1-5-2-11-5-15-6-8-15-11-25-12l-9-2-4-2-4-1-1 2c0 1 1 2 3 2l3 2 8 2c5 1 10 1 14 3 4 1 8 3 11 6 4 4 5 9 6 14l1 10v5l1 5 2-1zm-50-57 10 3 10 3a178 178 0 0 0 59 6c3 0 6-1 8-3 3-1 6-3 5-6l-1-1c-2 0-3 3-5 4l-7 2-17 1-39-5-11-3-6-2-5-1c-1 0-2 1-1 2zm95 3-1 8v9h1l2-4v-5l-1-8h-1z"/><path d="M1662 1498c0-2-2-3-4-2l-2 1-1 1-4 3-3 2-2 2-2 1v2l3 1 7-4 4-3 2-2 1-1c-1 0 0 0 0 0-1 0 0 0 0 0h-1c1 1 2 0 2-1z"/><path d="m1658 1497 2 10 2 5 2 4h2v-5l-2-5-4-9-1-1-1 1z"/><path d="M1658 1513a62 62 0 0 0 13-11l3-5c0-1-1-2-2-1l-4 3-4 4-8 8c-2 1 0 3 2 2z"/><path d="m1667 1502 3 9 1 2 1 2 2 4 2-1-1-4-1-3-1-2-4-9c0-1-3 0-2 2z"/><path d="m1668 1518 2-1 1-1 3-2 3-2 1-1 1-2c1-1 0-2-1-2l-2 1c-1 0 0 0 0 0h-2l-3 3-2 2-2 1-1 2 2 2z"/><path d="m1676 1508 3 7 4 6 3 2 1-3-4-7-4-6c-1-2-3 0-3 1z"/><path d="m1678 1522 3-2 4-3 3-3 1-2 1-1v-2h-1l-2 1-2 1-3 3-3 3-2 4c-1 1 0 2 1 1zm-30-33h1-1c2-1 0-3-1-2h-1v2l1 7v4l-1 2 1 1v1h1l1-2 1-2v-4l-1-8-1-1v2h-1 1z"/><path d="M1637 1500c4 1 7 0 11-1l5-1 4-3v-2h-5l-5 2-10 2c-2 1-2 3 0 3zm0-18-3 7-2 4c0 1-1 4 1 4 2 1 3-1 3-2a35 35 0 0 0 4-12c1-2-2-3-3-1z"/><path d="m1626 1491 14-1h13c2-1 1-3 0-4l-7-1h-7l-13 3c-2 1-1 3 0 3zm9-20-4 3-3 3-3 4-2 5 1 1c2 0 3-2 4-3l3-3 7-8-1-3-2 1z"/><path d="m1621 1479 9 3 5 2h5l1-1c0-2-2-3-4-4l-5-1-11-2c-2 0-2 3 0 3z"/><path d="m1633 1464-1-2h-2l-5 7-3 4-2 4h1l4-2 3-4 5-7-2 1 2-1z"/><path d="m1618 1468 9 2 4 2h5l1-1c-2-3-6-4-9-5l-9-1c-2 0-2 3-1 3zm-4 81 1 1 1-1v-4l1-2-1-2h-1v8l1-1h-1l-1 1zm1-12v-1l1-1v-2l-1-1h-1v5h1zm-2-13v-4l-1-1h-1 1-1c0-1-1 0 0 0v1-1 2l1 3h1zm-7-13-2-2-1-1v-1h-2 1v1l1 2 3 2v-1zm5-2h4l1 1h2l1-1-1-1h-3l-2-1h-2l-1 1 1 1zm12 1h4l2-1 1-1-2-1h-2l-1 1h-2v2zm14-3 2-1 1-1h1v-2l-1 1h-1v1l-2 1-1 1h1zm45 22-1 3v3h1v-1l1-2 1-3h-2zm-2 10-1 3v2l1 1h1v-1l1-2v-3l-1-1-1 1zm0 10v6h1l1-1v-5h-2zm-15-118c-1 7 1 15 5 22l6 8 4 13v12l1 1c2-1 3-3 3-5v-6c0-5-1-9-3-14l-7-9-4-8-3-14c0-2-2-2-2 0z"/><path d="M1679 1486c-1 10 7 18 17 19l2-3c-2-5-3-11-2-17l4-14c2-6 3-13 2-19v-4l-1-4-7-9-16-20-1 1 12 19 7 9 1 2 1 1v4c1 7 0 13-2 19l-3 8-1 6c-1 6 0 13 2 19l2-2c-8 0-14-7-15-15 0-2-2-2-2 0z"/><path d="m1681 1478-2-2-3-1c-2-2-2-4-2-6-1-2-2-3-4-3-3-1-5 1-6 3-2 4-1 9 1 13s4 7 8 10c2 2 5 4 9 5v-2l-5-5c-3-2-6-5-7-8-2-3-4-6-3-10 0-1 2-4 3-3l1 1 1 3c0 2 2 4 4 5 1 1 4 2 5 1v-1z"/><path d="m1681 1480-3-1-5 1-10 1-18 3v1l19-1 9-1 5-1 3-1v-1zm-36-59c-1-1-2 0-3 1l-2 2-5 6-5 6-2 6 2 6a53 53 0 0 1 4 13l2 7h2v-7a47 47 0 0 0-4-13l-3-6c0-2 2-4 3-5l4-6 5-6c1 0 4-4 2-4z"/><path d="M1678 1492c-5 1-9 0-13-2s-7-6-8-9c-2-4-3-9 0-12 1-2 3-2 5-2l3 4h2c2-4-3-8-7-8s-7 4-8 8c-2 8 4 18 11 22 4 2 10 3 15 1v-2z"/><path d="m1656 1466-2-1a12 12 0 0 0-6-2c-3 0-5 1-7 4-1 2-1 5 1 8l2 4 1 1 2 1 1-1v-1l-1-2-2-3-1-6 4-2h4l3 2 1-2zm-596 103a418 418 0 0 0-20 17 386 386 0 0 1-30 25l-20 15c-5 4-10 8-13 14-3 5-3 11-1 17 2 5 6 9 10 13 5 4 11 7 18 8l22 1 24-1c7-1 15-4 21-8 5-3 8-7 11-11l11-14a97 97 0 0 1 35-24l13-6c7-5 12-11 13-20 1-10-2-21-7-31l-6-10c-2-3-5-1-4 2a149 149 0 0 1 12 27l1 7v5s0-1 0 0l-2 4v2s0-1 0 0l-1 2-4 5-2 1-3 2-6 3-15 7c-13 6-24 16-33 28-3 4-5 8-9 11-3 5-8 8-14 10-7 3-14 4-22 4h-23c-7 0-13-1-19-3-5-2-9-5-13-9-3-5-6-10-5-16 1-5 5-9 9-13l17-13a580 580 0 0 0 56-50c1-1 0-2-1-1zm2 1v-1 1z"/><path d="M1061 1570c0 2 1 2 2 2l5 1 8 1h16a95 95 0 0 0 44-16l3-3c1-1 0-3-1-2l-7 4-7 4a89 89 0 0 1-59 9h-4zm216-331 8 4a251 251 0 0 0 15 5l5 2 4 1c1 0 2-2 1-3l-4-2-4-1-8-2-8-3-8-3-1 2zm118-45v-1 1zm-199-46c10 0 20 2 30 5a69 69 0 0 1 29 19l3 4 2 2 2 3h3l4-1h7l15-2c2-1 2-4-1-4l-13 2-14 1 1 1a73 73 0 0 0-57-31h-11v1zm304 242-47-66-21-29a228 228 0 0 0-57-52l1 1a1358 1358 0 0 1-29-221 924 924 0 0 0 18 183l4 22 2 11 1 5 2 3a228 228 0 0 1 54 48l18 25 45 62 7 9c1 1 2 0 2-1z"/><path d="m1530 1420 10 8 8 7c6 3 11-1 13-6v-2c-5-3-9-6-13-11l-7-14c-1-4-4-7-9-9l-5-1a99 99 0 0 0-28-2c-2 0-2 2 0 2l15 1a317 317 0 0 1 16 3c4 1 7 4 9 7l7 14c3 5 8 9 13 12v-1l-4 4c-3 2-5 1-7 0l-8-6-9-7-1 1z"/><path d="m1530 1420 2 7 2 4 5 7c4 4 9 6 14 6l6-1 4 1c2 2 0 6-1 8-4 5-12 2-17 0l-9-4-11-8h-1c4 7 11 11 17 14 6 2 14 6 20 2 4-1 5-5 6-8 0-3-1-7-4-7l-12-1-7-2-6-6-3-6-3-6c-1-2-3-1-2 0z"/><path d="M1558 1457c1 1 4 3 3 5l-4 1a38 38 0 0 1-24-3l-15-10c-1-1-2 0-1 1 6 8 15 14 25 16 6 1 12 1 17-1 2-1 4-2 4-4 1-3-2-5-4-7l-1 2z"/><path d="M1552 1467c0 3 0 5-3 6l-6 1-13-2-17-9-2-1-2-2-4-4-8-9-16-21v1l3-18h-2l-3 14-1 4 2 3 5 6 8 11 10 11 2 3 3 3 2 1 3 2 11 5c5 3 11 5 17 6 3 0 7 0 10-2s4-6 3-10l-2 1zm-173-288-1-63v-18h-1l-1 16a407 407 0 0 0 3 65zm22-2c3-29 8-59 15-87l3-13 2-12h-1l-4 10a213 213 0 0 0-7 33 644 644 0 0 0-8 69zm162 277h15a247 247 0 0 0 36-6l4-1 3-1v-2h-4l-4 1a143 143 0 0 1-21 5l-14 2-15 1v1zm-435 104v-12h-1l-1 3 1 3v6h1zm-1-20v-8l-1-3-1 3 1 2v6h1zm-1-26 1-3v-4l-1-3v-3h-1a8 8 0 0 0 0 3v10h1zm-1-25v-15h-1l-1 3v12h2zm0-27 1-7v-6h-1l-1 3v10h1zm2-24 1-2v-7h-1l-1 2v7h1zm1-20a129 129 0 0 1 3-12l1-5h-1l-2 4-1 4-1 9h1zm6-29v-4l1-4 1-4 1-4-1-1-3 9v4l-1 2 1 2h1zm4-30 1-9 1-4 1-4-1-1-2 4-1 5v9h1zm6-35v-2l1-2 2-4 1-10h-1l-3 9-1 4-1 3v2h2zm7-30 3-9 1-5 2-4-1-1-3 4-1 5-2 9 1 1zm8-29 3-7 1-3 1-2v-1l-1-1-1 1-1 2-1 3-2 7c-1 1 0 1 1 1zm94-31zm26-1h1v-1l1-1v-3h-2v2l-1 1v2h1zm3-14 2-3 1-2v-2h-1v1l-1 1v2l-1 3c-1 0 0 1 0 0zm2-13 1-1v-1l1-3v-4l-1-2h-1v6l-1 3 1 2zm-179-37 4 1 5 2 8 5c6 3 10 8 14 14l2-1c-3-7-8-12-14-16a42 42 0 0 0-14-6h-5v1zm-10 32a83 83 0 0 0 54 29l1-2c-8-1-16-3-23-7a93 93 0 0 1-31-21c-1-1-2 1-1 1zm354 38 3-3 3-2 8-4c5-3 11-4 16-5v-2c-6 0-12 1-17 4a36 36 0 0 0-11 7l-3 3 1 2zm24 2 2 1 3-1a28 28 0 0 0 10-4l2-2 1-2-1-1-4 2a26 26 0 0 1-8 5h-3l-2 1v1zm-89 3 3 1 2 1h2v-1h-2l-2-1h-3c-1-1-1 0 0 0zm13 4 6 1 3 1h2l1-1-3-1h-3l-6-1v1zm21 5 4 1 2 1h2v-1l-1-1h-1l-2-1-4-1-1 1 1 1zm18 6 6 3 2 2 3 2v-1l-2-3-3-1c-1-2-3-3-6-3v1zm19 13 2 3 2 3 5 6 1-1-4-6-2-3-3-3-1 1zm21 26 2 4 3 3 6 7 1-1-5-7-3-3-3-4-1 1zm17 25 2 4 2 3 2 3 2 3h1l-1-4-2-3-3-3-2-4-1 1zm15 23 3 4 1 2 1 1 1 1 1-1-1-1v-1l-2-2-3-4c-1-1-2 0-1 1zm14 21 4 7 2 4 1 2 1 1h1l-1-2-1-2-2-3-4-7h-1zm20 29h-1l1 1 1 1 1 2 1 2 2 2 1-1a20 20 0 0 0-3-4l-1-2-1-1-1-1 1 1v-1l-1 1c-1 0-1 0 0 0zm12 20v2l1 1v3l1 2 1 3h1l-1-6-1-3v-1l-1-1h-1zm-652 10-13 1-13 2-26 3-23 2c-6 1-13 0-17-5-4-4-5-9-6-14v-128l-1 2 43-46 44-45 24-26-1 1 7 3c2 0 3-2 1-3l-7-3h-2l-30 30-30 31-30 30-15 15-7 8-2 3v8l1 85v21l1 14c1 9 5 19 15 22 5 2 10 1 15 1l20-3 42-6 10-2v-1z"/><path d="M918 1173c6 6 15 10 24 10 9-1 17-5 24-12l5-5-3 1 60 13-1-1a165 165 0 0 1 24 64l1-2-49 28 3 1-5-29c0-2-3-3-4-1l-24 28-12 14-1 2v90l1 42 1-3a118 118 0 0 1-63 12l2 3-2-23-1-11-3-10c0-3-4-2-4 1l2 10 1 11 2 22c0 1 1 2 3 2a117 117 0 0 0 65-12l1-2v-132l-1 2 36-43-4-1 6 30c0 1 2 2 3 1l49-28c2-1 2-2 2-3a164 164 0 0 0-21-58l-2-4-4-5-14-3-14-3-32-6-2 1-3 4-8 6c-8 6-18 6-27 3l-9-6c-1-1-3 1-2 2z"/><path d="M911 1171c2 5 7 9 11 12s9 6 14 6c6 1 12 0 17-2l13-7c5-3 9-7 12-12 0-1-2-3-2-1-5 8-13 13-21 17-5 2-11 4-16 3-5 0-10-2-15-4l-6-6-6-6h-1zm29 112-6-1-6-1-13-1h-19l-6 1v1h6l6 1h25l7 1h6v-1zm-67-3a290 290 0 0 1-27 0l-13 1-7 1-6 1v1h13l13-1a340 340 0 0 1 27-3zm-28 12-4 34-5 34-3 19 1 1 7-34 4-34 2-19-2-1zm14 3 1 20a708 708 0 0 1 2 3l-1-23h-2zm40 9 3 7 2 7a376 376 0 0 1 10 29l-8-28-2-8-3-8c-1-1-2 0-2 1zm-3-96 4 20h1c0-7-2-14-4-21 0-1-2 0-1 1zm557-122-9 17-8 18-16 36-8 20 1 1 8-18a1415 1415 0 0 1 24-53l9-21h-1zm-456 53 53-2h25c8 0 16-2 23-6l17-14a235 235 0 0 1 36-30c7-4 14-9 22-10l5 1-1 3-10 8-20 19-4 4v1l21-18 11-9 5-4 2-5c-1-4-6-4-9-3l-12 3-21 13-19 15-17 16c-6 6-13 9-21 11l-5 1-6 1-13 1-55 3h-7v1z"/><path d="M1179 1079c1 2 2 2 3 2v-1a123 123 0 0 1-23 28 101 101 0 0 1-41 21l-5 2-5 1v1l9-1a85 85 0 0 0 26-10 104 104 0 0 0 40-41v-2h-4z"/><path d="m1139 1123-2 1-2 2-3 3-6 5c-5 4-10 6-16 8l-17 4a420 420 0 0 1-76 4l-19-2c-2-1-6-2-6-5 0-2 3-3 5-4h20v-2h-11l-9-1-6 3c-2 1-2 4-1 6 2 6 9 6 15 6a470 470 0 0 0 82-1l19-4a55 55 0 0 0 32-21l1-2z"/><path d="M995 1138c-1-2-3-4-3-7v-7c1-6 7-8 12-9h21a261 261 0 0 0 33-2c5-1 9-1 13-3v-1l-12 1-12 1-24 2h-21c-6 1-11 4-12 10v8c1 3 2 6 5 7 0 1 0 0 0 0zm171-61 3-1 4-3c2-2 3-4 3-7-1-5-6-8-11-8-6 0-11 3-16 6l-14 11-7 8-7 7v1l12-11 13-10 13-8c4-1 9-2 13 2 1 2 1 5-1 7l-2 3-4 2 1 1z"/><path d="m1153 1062-4 1-5 2a93 93 0 0 0-25 16c-10 8-21 17-33 23a59 59 0 0 1-22 6v2c7 0 14-2 20-4l18-10 32-25 10-6 5-2 5-2-1-1z"/><path d="m997 1116-3-11 1-8 2-4c3-2 7-2 10-2h12a242 242 0 0 0 55-3l17-7 24-14 25-15 15-9 5-2h3c2 1 3 2 3 4 2 2 2 5 2 8v8h2c2-4 2-9 1-13l-3-7c-3-3-6-4-10-3-5 1-9 4-13 7l-22 14a680 680 0 0 1-46 25c-7 3-15 3-22 4h-46c-3 0-7 0-11 2-3 1-5 4-6 8 0 4 0 9 2 14l2 4h1z"/><path d="M1000 1090c-2-4-4-9-3-14s4-8 7-12a158 158 0 0 1 60-38c10-4 22-4 33-5a610 610 0 0 1 60 2h1c1 0 0 0 0 0l1 1h1l1 1s0-1 0 0h1v1s0-1 0 0l1 5-3 7c0 1 1 2 2 1 4-4 6-11 2-16l-7-4-17-2h-33l-28 2a95 95 0 0 0-47 19c-9 6-18 13-26 21l-9 11a20 20 0 0 0 2 21l1-1z"/><path d="m1007 1069 15 3a136 136 0 0 0 31 0l15-3 16-6v-1l-14 4-8 2-7 1a131 131 0 0 1-48-1v1zm91-16 12-5a126 126 0 0 0 24-14l10-8v-1l-12 7-11 7-11 6c-4 3-9 4-12 7v1z"/><path fill="#AEF5FE" d="m1549 793-139-43-4 25-12 86a1502 1502 0 0 1 136 38l28-38 13-18 3-4 3-3h8c2 1 15 4 31 11l2 78 93 23 11-19 40-70-76-23-137-43zm11 29-3 3-5 7-17 26-8 13c-3 4-6 9-10 12 0 0-1 0 0 0v-1l-22-5-79-22-1-1 2-18 6-62c0-2 3-2 3 0h1l29 9 52 17 27 8 13 4 12 5 1 1-1 4zm183 54a300 300 0 0 1-36 57l-68-15-1-1-1-17-2-61 2-2 24 8 82 28v3z"/><path fill="#FC8393" d="m1531 810-52-16-27-9-26-8-2 14-6 62 21 6 39 11 20 6c6 1 13 3 19 6l4-7 4-7 18-26 8-13 4-6 3-5-13-3-14-5z"/><path fill="#3A90CE" d="M1633 915a1473 1473 0 0 1 74 15l18-27 15-27-22-8-84-29-1 76z"/><path fill="#AEF5FE" d="M1401 755a926 926 0 0 1-27 10l2 16v3l6-1h19v1h3a221 221 0 0 0 5-33l-4 1-4 3z"/><path d="m1371 766 20-8 10-4 5-2 2-1 1-2-2-1-2 1-5 2-10 5-19 9v1zm5 19h7l7 1h14l1-1v-1l-1-1h-21l-7 1v1z"/><path d="m1410 750 138 43 138 43 78 24-1-3-41 71-11 21 1-1-73-19-21-6 1 1-2-78-1-1a81 81 0 0 0-30-9h-9c-2 0-3 2-4 4l-4 5-7 10-15 21-18 23h2a1252 1252 0 0 0-139-39l1 2 15-88 4-25c0-2-3-2-3-1l-14 88-4 25 1 2a1261 1261 0 0 1 140 38l46-63-1 1c13 0 26 3 38 9l-1-2 2 78 1 2 74 19 21 6 1-1 41-71 12-20-1-3-139-42-138-43-77-23c-2 0-2 2-1 2z"/><path d="M1517 882c-6-3-12-4-19-6l-20-6-39-12-23-6 2 2 6-63 2-17c0-2-3-2-3 0l-7 62a948 948 0 0 1 0 19l79 22 11 3 11 3v-1z"/><path d="M1517 883c4-3 7-8 10-12l8-13 17-26 5-7 2-3 2-4-1-1-2 2-3 4-4 6-9 13-17 26-4 7-4 8c-1 0 0 1 0 0z"/><path d="m1561 817-13-5-13-4-26-8-53-17-15-5-15-4c-2-1-2 2 0 3l26 8 26 8 52 17 15 5 15 3 1-1zm180 57-12 23a528 528 0 0 1-22 34l1-1-58-12-16-4 1 2v-78l-2 1 85 29 24 8c2 1 3-2 1-3l-85-29-24-8-2 1v78l1 2 58 13 16 3h2a483 483 0 0 0 32-59z"/></svg>