<?xml version="1.0" encoding="utf-8"?>
<svg xmlns="http://www.w3.org/2000/svg" viewBox="0 0 300 150" fill="#fff">
  <path d="M 15.049 109.025 C 14.249 101.825 14.549 94.525 15.549 87.325 C 15.449 87.925 15.349 88.625 15.249 89.225 C 16.149 82.425 17.749 75.625 20.149 69.125 C 20.449 68.225 20.749 67.425 21.149 66.525 C 21.249 66.225 21.949 64.625 21.349 65.925 C 20.849 67.225 21.549 65.425 21.649 65.125 C 22.449 63.325 23.349 61.425 24.249 59.725 C 26.249 55.925 28.649 52.225 31.249 48.725 C 31.549 48.225 32.749 46.925 31.349 48.625 C 31.749 48.225 32.049 47.725 32.349 47.325 C 33.049 46.425 33.749 45.625 34.549 44.725 C 36.149 42.925 37.849 41.125 39.549 39.425 C 41.149 37.825 42.949 36.325 44.649 34.825 C 45.049 34.525 45.449 34.125 45.949 33.825 C 47.349 32.725 44.649 34.825 46.049 33.725 C 46.949 33.025 47.849 32.425 48.749 31.725 C 52.149 29.425 55.649 27.325 59.249 25.425 C 61.049 24.525 62.749 23.725 64.549 22.925 C 65.649 22.425 62.749 23.725 64.349 23.025 C 64.749 22.925 65.049 22.725 65.449 22.625 C 66.349 22.325 67.149 21.925 68.049 21.625 C 74.349 19.325 80.949 17.725 87.649 16.825 C 87.049 16.925 86.349 17.025 85.749 17.125 C 88.949 16.725 92.149 16.425 95.349 16.325 C 99.149 16.225 102.849 13.025 102.649 9.025 C 102.449 5.125 99.449 1.625 95.349 1.725 C 88.349 1.925 81.249 2.925 74.449 4.525 C 62.649 7.325 51.149 12.325 41.249 19.225 C 28.749 27.925 18.349 39.525 11.349 53.025 C 5.649 64.125 2.249 76.025 0.749 88.325 C -0.051 94.825 -0.251 101.425 0.349 108.025 C 0.349 108.325 0.449 108.625 0.449 108.925 C 0.649 110.925 1.149 112.625 2.549 114.125 C 3.849 115.425 5.949 116.325 7.749 116.225 C 11.349 116.225 15.449 113.125 15.049 109.025 Z"/>
  <path d="M 126.749 14.925 C 143.349 15.025 159.949 15.025 176.549 15.125 C 180.349 15.125 184.049 11.725 183.849 7.825 C 183.649 3.825 180.649 0.525 176.549 0.525 C 159.949 0.425 143.349 0.425 126.749 0.325 C 122.949 0.325 119.249 3.725 119.449 7.625 C 119.649 11.625 122.649 14.925 126.749 14.925 Z"/>
  <path d="M 194.649 3.525 C 194.549 3.825 194.349 4.125 194.249 4.425 C 193.749 5.225 193.449 6.225 193.349 7.125 C 193.149 8.125 193.149 9.025 193.449 10.025 C 193.649 11.025 194.149 11.825 194.749 12.525 C 195.249 13.325 195.949 13.925 196.849 14.425 C 197.449 14.625 198.049 14.925 198.649 15.125 C 199.949 15.425 201.249 15.425 202.549 15.125 C 203.149 14.925 203.749 14.625 204.349 14.425 C 205.449 13.725 206.349 12.925 206.949 11.825 C 207.049 11.525 207.249 11.225 207.349 10.925 C 207.849 10.125 208.149 9.125 208.249 8.225 C 208.449 7.225 208.449 6.325 208.149 5.325 C 207.949 4.325 207.449 3.525 206.849 2.825 C 206.349 2.025 205.649 1.425 204.749 0.925 C 204.149 0.725 203.549 0.425 202.949 0.225 C 201.649 -0.075 200.349 -0.075 199.049 0.225 C 198.449 0.425 197.849 0.725 197.249 0.925 C 196.149 1.525 195.249 2.425 194.649 3.525 Z"/>
</svg>
