<?xml version="1.0" encoding="utf-8"?>
<svg xmlns="http://www.w3.org/2000/svg" viewBox="200 350 330 150" fill="#fff">
<path d="M 424.175 499.995 C 443.275 500.195 462.475 494.095 477.775 482.395 C 480.975 479.995 483.975 477.495 486.875 474.695 C 489.675 471.995 489.775 466.995 486.875 464.295 C 483.875 461.595 479.475 461.395 476.475 464.295 C 474.875 465.895 473.175 467.395 471.475 468.795 C 470.975 469.195 470.475 469.595 469.975 469.995 C 468.875 470.895 471.275 468.995 470.375 469.695 C 470.075 469.895 469.775 470.095 469.475 470.395 C 468.275 471.295 467.075 472.195 465.775 472.995 C 462.975 474.895 459.975 476.595 456.975 478.095 C 456.175 478.495 455.375 478.895 454.575 479.195 C 454.175 479.395 453.675 479.595 453.275 479.795 C 453.175 479.795 454.775 479.195 454.075 479.495 C 453.775 479.595 453.575 479.695 453.275 479.795 C 451.375 480.495 449.475 481.195 447.575 481.795 C 443.175 483.195 438.575 484.195 433.975 484.795 C 434.575 484.695 435.275 484.595 435.875 484.495 C 431.975 484.995 428.175 485.195 424.275 485.195 C 420.475 485.195 416.775 488.595 416.975 492.495 C 416.975 496.695 420.075 499.995 424.175 499.995 Z"/>
<path d="M 492.375 457.095 C 492.475 457.095 492.575 457.095 492.675 457.095 C 493.675 457.095 494.675 456.895 495.475 456.495 C 496.375 456.195 497.175 455.695 497.875 454.995 C 498.575 454.295 499.075 453.495 499.375 452.595 C 499.875 451.695 500.075 450.795 499.975 449.795 C 499.875 449.195 499.775 448.495 499.675 447.895 C 499.375 446.695 498.675 445.595 497.775 444.695 C 497.275 444.295 496.775 443.895 496.275 443.595 C 495.175 442.895 493.875 442.595 492.575 442.595 C 492.475 442.595 492.375 442.595 492.275 442.595 C 491.275 442.595 490.275 442.795 489.475 443.195 C 488.575 443.495 487.775 443.995 487.075 444.695 C 486.375 445.395 485.875 446.195 485.575 447.095 C 485.075 447.995 484.875 448.895 484.975 449.895 C 485.075 450.495 485.175 451.195 485.275 451.795 C 485.575 452.995 486.275 454.095 487.175 454.995 C 487.675 455.395 488.175 455.795 488.675 456.095 C 489.775 456.795 491.075 457.095 492.375 457.095 Z"/>
<path d="M 299.975 499.595 C 325.575 499.695 351.175 499.796 376.675 499.896 C 383.875 499.896 391.175 499.995 398.375 499.995 C 402.175 499.995 405.875 496.596 405.675 492.696 C 405.475 488.696 402.475 485.396 398.375 485.396 C 372.775 485.296 347.175 485.195 321.675 485.095 C 314.475 485.095 307.175 484.995 299.975 484.995 C 296.175 484.995 292.475 488.395 292.675 492.295 C 292.775 496.295 295.775 499.595 299.975 499.595 Z"/>
</svg>
