<?xml version="1.0" encoding="UTF-8"?>
<!DOCTYPE svg PUBLIC "-//W3C//DTD SVG 1.1//EN" "http://www.w3.org/Graphics/SVG/1.1/DTD/svg11.dtd">
<svg xmlns="http://www.w3.org/2000/svg" version="1.1" width="1332px" height="1377px" style="shape-rendering:geometricPrecision; text-rendering:geometricPrecision; image-rendering:optimizeQuality; fill-rule:evenodd; clip-rule:evenodd" xmlns:xlink="http://www.w3.org/1999/xlink">
<g><path style="opacity:0.992" fill="#282828" d="M 671.5,-0.5 C 674.5,-0.5 677.5,-0.5 680.5,-0.5C 886.079,72.609 1091.75,145.776 1297.5,219C 1298.67,220.167 1299.83,221.333 1301,222.5C 1302.65,269.775 1302.99,317.108 1302,364.5C 1301.48,367.034 1300.32,369.2 1298.5,371C 1288.73,375.034 1278.9,378.867 1269,382.5C 1268.5,603.5 1268.33,824.5 1268.5,1045.5C 1268.67,1068.84 1268.5,1092.17 1268,1115.5C 1266.44,1118.73 1263.94,1120.9 1260.5,1122C 1065.71,1191.04 870.876,1259.87 676,1328.5C 480.124,1259.54 284.29,1190.37 88.5,1121C 85.8647,1119.04 84.0314,1116.54 83,1113.5C 82.5,1086.17 82.3334,1058.84 82.5,1031.5C 82.5,814.833 82.5,598.167 82.5,381.5C 72.1948,378.621 62.1948,374.954 52.5,370.5C 51.4164,369.335 50.5831,368.002 50,366.5C 49.3333,318.833 49.3333,271.167 50,223.5C 50.7845,221.714 51.9512,220.214 53.5,219C 259.636,145.901 465.636,72.7346 671.5,-0.5 Z"/></g>
<g><path style="opacity:0.999" fill="#5c3571" d="M 675.5,21.5 C 869.465,90.2122 1063.47,159.046 1257.5,228C 1063.91,297.639 870.081,366.472 676,434.5C 481.437,366.647 287.271,297.813 93.5,228C 287.712,159.432 481.712,90.5983 675.5,21.5 Z"/></g>
<g><path style="opacity:0.998" fill="#282829" d="M 671.5,52.5 C 675.273,52.2633 678.94,52.7633 682.5,54C 838.747,109.527 995.08,164.86 1151.5,220C 1156.94,222.11 1158.78,225.944 1157,231.5C 1155.89,233.815 1154.06,235.315 1151.5,236C 992.904,292.143 834.237,347.976 675.5,403.5C 515.988,347.829 356.654,291.663 197.5,235C 191.795,229.186 192.462,224.186 199.5,220C 357.121,164.629 514.454,108.795 671.5,52.5 Z"/></g>
<g><path style="opacity:1" fill="#c64bf6" d="M 806.5,115.5 C 746.561,128.554 686.561,141.221 626.5,153.5C 591.247,155.262 557.247,162.595 524.5,175.5C 431.164,195.168 337.83,214.835 244.5,234.5C 238.311,232.826 232.311,230.66 226.5,228C 375.413,175.14 524.413,122.473 673.5,70C 677.316,69.5992 680.983,70.2658 684.5,72C 725.233,86.4103 765.9,100.91 806.5,115.5 Z"/></g>
<g><path style="opacity:1" fill="#e7b4fb" d="M 806.5,115.5 C 860.06,134.129 913.393,153.129 966.5,172.5C 905.071,183.92 843.738,195.586 782.5,207.5C 785.509,201.544 785.009,195.877 781,190.5C 777.466,186.631 773.633,183.131 769.5,180C 724.39,157.746 676.723,148.912 626.5,153.5C 686.561,141.221 746.561,128.554 806.5,115.5 Z"/></g>
<g><path style="opacity:1" fill="#fefefe" d="M 782.5,207.5 C 776.315,214.938 768.649,220.438 759.5,224C 766.551,226.514 773.551,229.18 780.5,232C 761.063,240.05 741.396,247.55 721.5,254.5C 714.729,257.239 707.895,259.905 701,262.5C 698.352,261.786 695.852,260.786 693.5,259.5C 671.88,251.627 650.213,243.96 628.5,236.5C 625.961,235.093 626.294,233.927 629.5,233C 641.911,228.53 654.244,223.863 666.5,219C 669.945,217.227 672.278,214.56 673.5,211C 671.811,206.316 668.477,203.316 663.5,202C 650.275,196.873 636.609,195.206 622.5,197C 602.839,202.075 602.506,208.408 621.5,216C 591.318,227.627 560.985,238.794 530.5,249.5C 514.779,244.227 501.279,235.56 490,223.5C 484.068,215.47 484.068,207.47 490,199.5C 499.909,189.136 511.409,181.136 524.5,175.5C 557.247,162.595 591.247,155.262 626.5,153.5C 676.723,148.912 724.39,157.746 769.5,180C 773.633,183.131 777.466,186.631 781,190.5C 785.009,195.877 785.509,201.544 782.5,207.5 Z"/></g>
<g><path style="opacity:1" fill="#c64bf6" d="M 966.5,172.5 C 1019.23,190.69 1071.9,209.19 1124.5,228C 975.676,281.233 826.676,334.233 677.5,387C 620.518,368.062 563.852,348.228 507.5,327.5C 582.49,311.058 657.49,294.725 732.5,278.5C 736.949,283.232 742.282,286.732 748.5,289C 781.077,298.129 813.41,297.129 845.5,286C 854.106,282.787 861.606,277.953 868,271.5C 872.292,264.415 870.792,258.915 863.5,255C 860.929,253.546 858.262,252.38 855.5,251.5C 856.842,250.207 858.509,249.374 860.5,249C 916.884,236.571 972.884,222.571 1028.5,207C 1029.67,206.581 1030.67,205.915 1031.5,205C 1021.12,204.673 1010.78,205.34 1000.5,207C 925.4,218.793 850.734,231.959 776.5,246.5C 758.914,248.903 741.414,251.903 724,255.5C 722.93,255.472 722.097,255.139 721.5,254.5C 741.396,247.55 761.063,240.05 780.5,232C 773.551,229.18 766.551,226.514 759.5,224C 768.649,220.438 776.315,214.938 782.5,207.5C 843.738,195.586 905.071,183.92 966.5,172.5 Z"/></g>
<g><path style="opacity:1" fill="#e7b4fb" d="M 524.5,175.5 C 511.409,181.136 499.909,189.136 490,199.5C 484.068,207.47 484.068,215.47 490,223.5C 501.279,235.56 514.779,244.227 530.5,249.5C 560.985,238.794 591.318,227.627 621.5,216C 602.506,208.408 602.839,202.075 622.5,197C 636.609,195.206 650.275,196.873 663.5,202C 668.477,203.316 671.811,206.316 673.5,211C 672.278,214.56 669.945,217.227 666.5,219C 654.244,223.863 641.911,228.53 629.5,233C 626.294,233.927 625.961,235.093 628.5,236.5C 546.746,252.254 465.079,267.921 383.5,283.5C 336.806,267.976 290.472,251.643 244.5,234.5C 337.83,214.835 431.164,195.168 524.5,175.5 Z"/></g>
<g><path style="opacity:1" fill="#e7b3fb" d="M 855.5,251.5 C 838.818,244.959 821.484,242.459 803.5,244C 794.501,244.917 785.501,245.75 776.5,246.5C 850.734,231.959 925.4,218.793 1000.5,207C 1010.78,205.34 1021.12,204.673 1031.5,205C 1030.67,205.915 1029.67,206.581 1028.5,207C 972.884,222.571 916.884,236.571 860.5,249C 858.509,249.374 856.842,250.207 855.5,251.5 Z"/></g>
<g><path style="opacity:1" fill="#c74cf6" d="M 628.5,236.5 C 650.213,243.96 671.88,251.627 693.5,259.5C 692.653,260.966 691.32,261.8 689.5,262C 609.13,276.839 528.796,291.672 448.5,306.5C 426.544,299.405 404.877,291.738 383.5,283.5C 465.079,267.921 546.746,252.254 628.5,236.5 Z"/></g>
<g><path style="opacity:1" fill="#fefefe" d="M 855.5,251.5 C 858.262,252.38 860.929,253.546 863.5,255C 870.792,258.915 872.292,264.415 868,271.5C 861.606,277.953 854.106,282.787 845.5,286C 813.41,297.129 781.077,298.129 748.5,289C 742.282,286.732 736.949,283.232 732.5,278.5C 731.67,271.66 734.003,266.16 739.5,262C 750.973,254.591 763.307,249.425 776.5,246.5C 785.501,245.75 794.501,244.917 803.5,244C 821.484,242.459 838.818,244.959 855.5,251.5 Z"/></g>
<g><path style="opacity:1" fill="#412e4c" d="M 73.5,244.5 C 71.5063,280.818 70.8396,317.485 71.5,354.5C 70.5015,317.67 70.1682,280.67 70.5,243.5C 71.791,243.263 72.791,243.596 73.5,244.5 Z"/></g>
<g><path style="opacity:1" fill="#5c3571" d="M 73.5,244.5 C 270.667,314.556 468,384.223 665.5,453.5C 665.667,490.835 665.5,528.168 665,565.5C 467.065,495.071 269.232,424.737 71.5,354.5C 70.8396,317.485 71.5063,280.818 73.5,244.5 Z"/></g>
<g><path style="opacity:1" fill="#5c3571" d="M 1278.5,243.5 C 1279.83,261.654 1280.5,280.154 1280.5,299C 1280.5,317.739 1280.16,336.405 1279.5,355C 1081.82,424.946 884.158,494.78 686.5,564.5C 686.167,527.494 686.5,490.494 687.5,453.5C 884.685,383.727 1081.68,313.727 1278.5,243.5 Z"/></g>
<g><path style="opacity:1" fill="#e7b3fb" d="M 776.5,246.5 C 763.307,249.425 750.973,254.591 739.5,262C 734.003,266.16 731.67,271.66 732.5,278.5C 657.49,294.725 582.49,311.058 507.5,327.5C 487.543,321.072 467.876,314.072 448.5,306.5C 528.796,291.672 609.13,276.839 689.5,262C 691.32,261.8 692.653,260.966 693.5,259.5C 695.852,260.786 698.352,261.786 701,262.5C 707.895,259.905 714.729,257.239 721.5,254.5C 722.097,255.139 722.93,255.472 724,255.5C 741.414,251.903 758.914,248.903 776.5,246.5 Z"/></g>
<g><path style="opacity:1" fill="#5c3571" d="M 103.5,389.5 C 290.737,455.69 478.07,521.69 665.5,587.5C 665.833,826.168 665.5,1064.83 664.5,1303.5C 477.583,1237.08 290.583,1171.08 103.5,1105.5C 103.5,866.833 103.5,628.167 103.5,389.5 Z"/></g>
<g><path style="opacity:1" fill="#5c3571" d="M 687.5,1302.5 C 686.5,1064.67 686.167,826.667 686.5,588.5C 873.123,521.368 1060.12,455.034 1247.5,389.5C 1247.83,627.834 1247.5,866.168 1246.5,1104.5C 1060.31,1170.9 873.972,1236.9 687.5,1302.5 Z"/></g>
<g><path style="opacity:1" fill="#282828" d="M 1209.5,422.5 C 1213.55,422.441 1216.71,424.108 1219,427.5C 1219.67,642.167 1219.67,856.833 1219,1071.5C 1216.88,1074.43 1214.05,1076.26 1210.5,1077C 1047.88,1134.6 885.21,1192.1 722.5,1249.5C 718.967,1248.8 716.467,1246.8 715,1243.5C 714.333,1029.17 714.333,814.833 715,600.5C 718.153,597.218 721.987,595.052 726.5,594C 887.712,537.098 1048.71,479.932 1209.5,422.5 Z"/></g>
<g><path style="opacity:1" fill="#292829" d="M 138.5,422.5 C 303.634,480.203 468.634,538.369 633.5,597C 634.333,597.833 635.167,598.667 636,599.5C 637.664,814.087 637.998,1028.75 637,1243.5C 635.533,1246.8 633.033,1248.8 629.5,1249.5C 464.035,1191.51 298.868,1132.85 134,1073.5C 132.336,858.246 132.002,642.913 133,427.5C 134.406,425.256 136.239,423.59 138.5,422.5 Z"/></g>
<g><path style="opacity:1" fill="#c64bf6" d="M 148.5,443.5 C 305.909,498.636 463.242,553.969 620.5,609.5C 620.833,815.834 620.5,1022.17 619.5,1228.5C 462.768,1172.4 305.768,1117.07 148.5,1062.5C 148.5,856.167 148.5,649.833 148.5,443.5 Z"/></g>
<g><path style="opacity:1" fill="#c74bf6" d="M 1201.5,443.5 C 1202.83,649.736 1202.83,856.069 1201.5,1062.5C 1145.83,1081.83 1090.17,1101.17 1034.5,1120.5C 1080.82,898.706 1127.32,677.039 1174,455.5C 1105.85,684.752 1038.02,914.085 970.5,1143.5C 943.323,1153.56 915.989,1163.23 888.5,1172.5C 904.013,1122.96 920.68,1073.96 938.5,1025.5C 943.942,1029.63 950.109,1031.29 957,1030.5C 968.59,1030.46 978.757,1026.62 987.5,1019C 1012.01,995.817 1020.51,967.65 1013,934.5C 1006.49,917.318 993.991,909.985 975.5,912.5C 977.833,905.167 980.167,897.833 982.5,890.5C 990.023,887.437 997.69,884.77 1005.5,882.5C 1005.33,872.828 1005.5,863.161 1006,853.5C 1019.03,847.803 1029.7,839.137 1038,827.5C 1061.64,791.737 1070.97,752.404 1066,709.5C 1064.87,695.976 1061.7,682.976 1056.5,670.5C 1078.97,603.759 1101.64,537.092 1124.5,470.5C 1150.1,461.301 1175.76,452.301 1201.5,443.5 Z"/></g>
<g><path style="opacity:0.627" fill="#663579" d="M 1201.5,443.5 C 1201.56,442.957 1201.89,442.624 1202.5,442.5C 1202.83,545.833 1203.17,649.167 1203.5,752.5C 1203.5,856.169 1202.83,959.502 1201.5,1062.5C 1202.83,856.069 1202.83,649.736 1201.5,443.5 Z"/></g>
<g><path style="opacity:1" fill="#e7b4fb" d="M 1034.5,1120.5 C 1013.53,1128.94 992.201,1136.6 970.5,1143.5C 1038.02,914.085 1105.85,684.752 1174,455.5C 1127.32,677.039 1080.82,898.706 1034.5,1120.5 Z"/></g>
<g><path style="opacity:1" fill="#e7b4fb" d="M 1124.5,470.5 C 1101.64,537.092 1078.97,603.759 1056.5,670.5C 1042.12,643.974 1019.78,632.808 989.5,637C 981.665,637.709 973.998,639.209 966.5,641.5C 979.833,598.5 993.167,555.5 1006.5,512.5C 1045.75,498.304 1085.09,484.304 1124.5,470.5 Z"/></g>
<g><path style="opacity:1" fill="#c64bf6" d="M 1006.5,512.5 C 993.167,555.5 979.833,598.5 966.5,641.5C 923.684,659.826 895.851,691.493 883,736.5C 878.422,752.886 875.589,769.552 874.5,786.5C 873.191,790.351 873.191,794.351 874.5,798.5C 875.107,798.376 875.44,798.043 875.5,797.5C 890.438,792.298 905.438,787.298 920.5,782.5C 921.043,782.56 921.376,782.893 921.5,783.5C 876.058,924.941 831.391,1066.61 787.5,1208.5C 769.505,1214.83 751.505,1221.17 733.5,1227.5C 731.501,1022.17 730.834,816.503 731.5,610.5C 822.94,577.462 914.607,544.796 1006.5,512.5 Z"/></g>
<g><path style="opacity:1" fill="#da89f9" d="M 375.5,629.5 C 376.923,635.712 379.59,641.712 383.5,647.5C 376.146,645.152 368.813,642.819 361.5,640.5C 361.5,635.167 361.5,629.833 361.5,624.5C 366.241,626.19 370.907,627.856 375.5,629.5 Z"/></g>
<g><path style="opacity:1" fill="#de96fa" d="M 375.5,629.5 C 382.019,631.605 388.352,633.938 394.5,636.5C 393.427,637.251 393.26,638.251 394,639.5C 396.452,644.068 398.618,648.735 400.5,653.5C 394.772,651.652 389.106,649.652 383.5,647.5C 379.59,641.712 376.923,635.712 375.5,629.5 Z"/></g>
<g><path style="opacity:1" fill="#fefefe" d="M 1056.5,670.5 C 1061.7,682.976 1064.87,695.976 1066,709.5C 1070.97,752.404 1061.64,791.737 1038,827.5C 1029.7,839.137 1019.03,847.803 1006,853.5C 1005.5,863.161 1005.33,872.828 1005.5,882.5C 997.69,884.77 990.023,887.437 982.5,890.5C 966.719,895.427 951.052,900.761 935.5,906.5C 934.677,880.17 934.01,853.837 933.5,827.5C 933.512,822.254 933.845,817.087 934.5,812C 946.657,807.726 958.657,803.059 970.5,798C 989.323,781.223 994.157,761.056 985,737.5C 979.904,731.957 974.07,731.124 967.5,735C 963.908,737.921 961.075,741.421 959,745.5C 955.954,753.565 954.12,761.898 953.5,770.5C 942.402,774.53 931.402,778.53 920.5,782.5C 905.438,787.298 890.438,792.298 875.5,797.5C 874.518,794.038 874.185,790.371 874.5,786.5C 875.589,769.552 878.422,752.886 883,736.5C 895.851,691.493 923.684,659.826 966.5,641.5C 973.998,639.209 981.665,637.709 989.5,637C 1019.78,632.808 1042.12,643.974 1056.5,670.5 Z"/></g>
<g><path style="opacity:1" fill="#fefefe" d="M 319.5,638.5 C 328.338,637.501 335.838,640.168 342,646.5C 374.333,682.833 406.667,719.167 439,755.5C 446.621,766.482 449.788,778.649 448.5,792C 447.179,873.164 446.013,954.33 445,1035.5C 444.096,1042.89 441.263,1049.39 436.5,1055C 428.073,1060.37 420.573,1059.2 414,1051.5C 382.434,1015.6 349.767,980.596 316,946.5C 310.747,939.993 307.08,932.66 305,924.5C 303.883,911.712 303.383,898.878 303.5,886C 304.091,809.497 304.924,732.997 306,656.5C 307.7,648.312 312.2,642.312 319.5,638.5 Z"/></g>
<g><path style="opacity:1" fill="#e2a2fa" d="M 394.5,636.5 C 400.392,638.129 406.058,640.129 411.5,642.5C 410.957,642.56 410.624,642.893 410.5,643.5C 413.402,648.632 415.735,653.965 417.5,659.5C 411.828,657.498 406.162,655.498 400.5,653.5C 398.618,648.735 396.452,644.068 394,639.5C 393.26,638.251 393.427,637.251 394.5,636.5 Z"/></g>
<g><path style="opacity:1" fill="#e5aefb" d="M 411.5,642.5 C 417.532,643.731 423.199,645.731 428.5,648.5C 431.116,654.063 433.449,659.73 435.5,665.5C 429.426,663.698 423.426,661.698 417.5,659.5C 415.735,653.965 413.402,648.632 410.5,643.5C 410.624,642.893 410.957,642.56 411.5,642.5 Z"/></g>
<g><path style="opacity:1" fill="#e9bbfb" d="M 428.5,648.5 C 434.901,649.593 440.901,651.593 446.5,654.5C 446.062,654.435 445.728,654.601 445.5,655C 448.578,660.323 451.245,665.823 453.5,671.5C 447.376,669.804 441.376,667.804 435.5,665.5C 433.449,659.73 431.116,654.063 428.5,648.5 Z"/></g>
<g><path style="opacity:1" fill="#edc7fc" d="M 446.5,654.5 C 453.403,656.466 460.07,658.799 466.5,661.5C 465.957,661.56 465.624,661.893 465.5,662.5C 467.845,667.855 470.179,673.188 472.5,678.5C 466.031,676.346 459.697,674.012 453.5,671.5C 451.245,665.823 448.578,660.323 445.5,655C 445.728,654.601 446.062,654.435 446.5,654.5 Z"/></g>
<g><path style="opacity:1" fill="#f1d4fc" d="M 466.5,661.5 C 481.117,664.61 490.95,673.277 496,687.5C 498.601,693.235 500.267,699.235 501,705.5C 501.5,715.161 501.666,724.828 501.5,734.5C 498.167,728.5 494.833,722.5 491.5,716.5C 492.397,702.686 488.064,690.853 478.5,681C 476.512,680.062 474.512,679.228 472.5,678.5C 470.179,673.188 467.845,667.855 465.5,662.5C 465.624,661.893 465.957,661.56 466.5,661.5 Z"/></g>
<g><path style="opacity:1" fill="#e7b4fb" d="M 982.5,890.5 C 980.167,897.833 977.833,905.167 975.5,912.5C 951.162,921.008 934.995,937.674 927,962.5C 924.03,976.415 923.697,990.415 926,1004.5C 927.647,1013.15 931.814,1020.15 938.5,1025.5C 920.68,1073.96 904.013,1122.96 888.5,1172.5C 855.06,1184.87 821.393,1196.87 787.5,1208.5C 831.391,1066.61 876.058,924.941 921.5,783.5C 921.376,782.893 921.043,782.56 920.5,782.5C 931.402,778.53 942.402,774.53 953.5,770.5C 954.12,761.898 955.954,753.565 959,745.5C 961.075,741.421 963.908,737.921 967.5,735C 974.07,731.124 979.904,731.957 985,737.5C 994.157,761.056 989.323,781.223 970.5,798C 958.657,803.059 946.657,807.726 934.5,812C 933.845,817.087 933.512,822.254 933.5,827.5C 934.01,853.837 934.677,880.17 935.5,906.5C 951.052,900.761 966.719,895.427 982.5,890.5 Z"/></g>
<g><path style="opacity:1" fill="#edc6fc" d="M 491.5,716.5 C 494.833,722.5 498.167,728.5 501.5,734.5C 501.5,737.167 501.5,739.833 501.5,742.5C 500.671,749.655 500.171,756.989 500,764.5C 497.392,758.947 494.559,753.613 491.5,748.5C 491.5,737.833 491.5,727.167 491.5,716.5 Z"/></g>
<g><path style="opacity:1" fill="#e9b8fb" d="M 501.5,742.5 C 501.078,761.165 500.745,779.831 500.5,798.5C 497.441,793.387 494.608,788.053 492,782.5C 491.501,776.509 491.334,770.509 491.5,764.5C 491.5,759.167 491.5,753.833 491.5,748.5C 494.559,753.613 497.392,758.947 500,764.5C 500.171,756.989 500.671,749.655 501.5,742.5 Z"/></g>
<g><path style="opacity:1" fill="#e5abfb" d="M 491.5,764.5 C 491.334,770.509 491.501,776.509 492,782.5C 494.608,788.053 497.441,793.387 500.5,798.5C 500.5,806.833 500.5,815.167 500.5,823.5C 497.167,817.5 493.833,811.5 490.5,805.5C 490.171,791.656 490.504,777.99 491.5,764.5 Z"/></g>
<g><path style="opacity:1" fill="#ecc1fc" d="M 874.5,786.5 C 874.185,790.371 874.518,794.038 875.5,797.5C 875.44,798.043 875.107,798.376 874.5,798.5C 873.191,794.351 873.191,790.351 874.5,786.5 Z"/></g>
<g><path style="opacity:1" fill="#e1a1fb" d="M 490.5,805.5 C 493.833,811.5 497.167,817.5 500.5,823.5C 500.5,833.167 500.5,842.833 500.5,852.5C 497.167,846.5 493.833,840.5 490.5,834.5C 490.5,828.833 490.5,823.167 490.5,817.5C 490.5,813.5 490.5,809.5 490.5,805.5 Z"/></g>
<g><path style="opacity:1" fill="#de94fa" d="M 490.5,834.5 C 493.833,840.5 497.167,846.5 500.5,852.5C 500.5,853.167 500.5,853.833 500.5,854.5C 499.67,863.324 499.17,872.324 499,881.5C 496.392,875.947 493.559,870.613 490.5,865.5C 490.5,855.167 490.5,844.833 490.5,834.5 Z"/></g>
<g><path style="opacity:1" fill="#da89f9" d="M 500.5,854.5 C 500.333,873.17 500,891.837 499.5,910.5C 496.713,904.925 493.879,899.259 491,893.5C 490.5,884.173 490.334,874.839 490.5,865.5C 493.559,870.613 496.392,875.947 499,881.5C 499.17,872.324 499.67,863.324 500.5,854.5 Z"/></g>
<g><path style="opacity:1" fill="#d57af9" d="M 490.5,817.5 C 490.5,823.167 490.5,828.833 490.5,834.5C 490.5,844.833 490.5,855.167 490.5,865.5C 490.334,874.839 490.5,884.173 491,893.5C 493.879,899.259 496.713,904.925 499.5,910.5C 499.5,921.167 499.5,931.833 499.5,942.5C 496.167,936.5 492.833,930.5 489.5,924.5C 489.5,923.833 489.5,923.167 489.5,922.5C 489.168,887.329 489.502,852.329 490.5,817.5 Z"/></g>
<g><path style="opacity:0.953" fill="#513262" d="M 686.5,588.5 C 686.167,826.667 686.5,1064.67 687.5,1302.5C 687.44,1303.04 687.107,1303.38 686.5,1303.5C 685.167,1065 685.167,826.667 686.5,588.5 Z"/></g>
<g><path style="opacity:1" fill="#fefefe" d="M 975.5,912.5 C 993.991,909.985 1006.49,917.318 1013,934.5C 1020.51,967.65 1012.01,995.817 987.5,1019C 978.757,1026.62 968.59,1030.46 957,1030.5C 950.109,1031.29 943.942,1029.63 938.5,1025.5C 931.814,1020.15 927.647,1013.15 926,1004.5C 923.697,990.415 924.03,976.415 927,962.5C 934.995,937.674 951.162,921.008 975.5,912.5 Z"/></g>
<g><path style="opacity:0.8" fill="#8b3caa" d="M 731.5,610.5 C 730.834,816.503 731.501,1022.17 733.5,1227.5C 732.791,1228.4 731.791,1228.74 730.5,1228.5C 730.167,1022.33 730.5,816.333 731.5,610.5 Z"/></g>
<g><path style="opacity:1" fill="#d16df8" d="M 489.5,924.5 C 492.833,930.5 496.167,936.5 499.5,942.5C 499.998,955.924 499.331,969.257 497.5,982.5C 494.522,978.557 492.022,974.223 490,969.5C 489.5,954.504 489.333,939.504 489.5,924.5 Z"/></g>
<g><path style="opacity:1" fill="#cc5df7" d="M 489.5,922.5 C 489.5,923.167 489.5,923.833 489.5,924.5C 489.333,939.504 489.5,954.504 490,969.5C 492.022,974.223 494.522,978.557 497.5,982.5C 496.375,988.088 493.708,992.755 489.5,996.5C 486.97,992.774 484.97,988.774 483.5,984.5C 484.997,980.838 486.497,977.172 488,973.5C 488.168,956.328 488.668,939.328 489.5,922.5 Z"/></g>
<g><path style="opacity:0.199" fill="#000000" d="M 82.5,1031.5 C 82.3334,1058.84 82.5,1086.17 83,1113.5C 84.0314,1116.54 85.8647,1119.04 88.5,1121C 284.29,1190.37 480.124,1259.54 676,1328.5C 870.876,1259.87 1065.71,1191.04 1260.5,1122C 1263.94,1120.9 1266.44,1118.73 1268,1115.5C 1268.5,1092.17 1268.67,1068.84 1268.5,1045.5C 1285.42,1056.92 1299.92,1070.92 1312,1087.5C 1322.73,1102.61 1329.23,1119.27 1331.5,1137.5C 1331.5,1141.83 1331.5,1146.17 1331.5,1150.5C 1329.35,1167.44 1323.52,1183.11 1314,1197.5C 1304.55,1209.95 1294.05,1221.45 1282.5,1232C 1256,1253.43 1227,1271.1 1195.5,1285C 1127.97,1314.05 1057.97,1335.05 985.5,1348C 892.765,1364.87 799.432,1374.37 705.5,1376.5C 678.833,1376.5 652.167,1376.5 625.5,1376.5C 512.267,1374.38 400.267,1360.88 289.5,1336C 223.912,1321.25 161.245,1298.58 101.5,1268C 76.7535,1254.59 54.2535,1238.09 34,1218.5C 22.2829,1206.11 12.9496,1192.11 6,1176.5C 2.86002,1167.93 0.693358,1159.27 -0.5,1150.5C -0.5,1146.17 -0.5,1141.83 -0.5,1137.5C 2.26894,1115.71 10.7689,1096.38 25,1079.5C 41.8078,1060.54 60.9745,1044.54 82.5,1031.5 Z"/></g>
</svg>
